<svg width="48" height="48" viewBox="0 0 48 48" fill="none" xmlns="http://www.w3.org/2000/svg">
<path d="M5.80231 14.2085C5.83084 14.0729 5.97348 13.8017 6.10186 13.6161C6.34436 13.2735 6.34436 13.2664 6.487 13.4091C6.57259 13.4877 9.65369 16.0642 13.341 19.1332C17.0284 22.2093 20.0881 24.7573 20.138 24.8001C20.2022 24.8572 20.1023 24.9572 19.168 25.5924L12.585 20.1039C8.96187 17.0848 5.93782 14.5796 5.8665 14.5368C5.75952 14.4726 5.75239 14.4155 5.80231 14.2085Z" fill="#95CADB"/>
<path d="M27.8764 24.8786C27.8764 24.8358 30.9718 22.2165 34.7661 19.0475C38.5533 15.8786 41.6629 13.2878 41.67 13.2878C41.6843 13.2807 41.7984 13.452 41.9339 13.6589C42.0694 13.8588 42.1978 14.1157 42.2192 14.2299C42.262 14.4155 41.9482 14.6796 28.8179 25.6066L28.3471 25.2783C28.0904 25.0999 27.8764 24.9215 27.8764 24.8786Z" fill="#95CADB"/>
<path d="M20.1594 26.4131C20.1523 26.3917 20.3876 26.2276 20.6729 26.042C20.9511 25.8564 21.1936 25.6994 21.2007 25.6994C21.215 25.6994 21.5644 25.9921 21.9852 26.3489C22.4132 26.7058 22.9338 27.084 23.1478 27.184C23.4473 27.3267 23.6542 27.3767 24.0036 27.3767C24.3531 27.3767 24.5599 27.3267 24.8595 27.184C25.0735 27.084 25.6012 26.7058 26.0363 26.3489C26.8208 25.6994 26.8208 25.6923 26.9992 25.8136C27.099 25.885 27.3272 26.0349 27.5127 26.1562C27.6981 26.2775 27.8479 26.3989 27.8336 26.4203C27.8265 26.4488 27.2916 26.9128 26.6425 27.448C25.9935 27.9905 25.3374 28.5043 25.1804 28.59C25.0235 28.6828 24.6955 28.797 24.4458 28.8541C24.0821 28.9326 23.9252 28.9326 23.5543 28.8541C23.3118 28.8041 22.9481 28.6614 22.7555 28.54C22.5558 28.4187 21.8925 27.8977 21.2791 27.3838C20.6658 26.8699 20.1594 26.4346 20.1594 26.4131Z" fill="#95CADB"/>
<path d="M28.8965 25.5568C28.9179 25.5354 31.9277 23.0231 35.5793 19.9683L42.2194 14.4084L42.2408 24.0009C42.2622 32.3657 42.2479 33.629 42.1552 33.9287C42.091 34.1286 42.0126 34.257 41.9555 34.2356C41.9127 34.2213 38.9386 32.2729 35.3582 29.9033C31.7779 27.5338 28.868 25.5782 28.8965 25.5568Z" fill="#ACDFEA"/>
<path d="M5.85241 33.9287C5.75969 33.6361 5.74543 32.3799 5.75256 24.0365C5.75969 18.598 5.78822 14.4941 5.82388 14.5084C5.85954 14.5226 8.86932 17.0207 12.521 20.0683C16.1655 23.1087 19.1254 25.621 19.0969 25.6424C19.0683 25.671 16.1441 27.6123 12.5923 29.9533C9.04049 32.3014 6.0949 34.2285 6.04498 34.2428C5.99505 34.257 5.9166 34.1357 5.85241 33.9287Z" fill="#ACDFEA"/>
<path d="M7.02922 35.0707C7.03635 35.0421 9.96054 33.0865 13.5409 30.7241C17.1213 28.3617 20.0597 26.4204 20.0811 26.4204C20.1025 26.4132 20.6588 26.87 21.3292 27.4267C21.9925 27.9834 22.6701 28.5116 22.827 28.5972C22.9839 28.69 23.312 28.8042 23.5545 28.8542C23.9254 28.9327 24.0823 28.9327 24.446 28.8542C24.6956 28.8042 25.0237 28.69 25.1806 28.5972C25.3375 28.5044 26.0079 27.9763 26.6784 27.4267C27.3417 26.87 27.9122 26.4275 27.9408 26.4346C27.9693 26.4489 30.9078 28.3831 34.481 30.7384C38.0471 33.0937 40.9713 35.0421 40.9713 35.0707C40.9784 35.0992 40.9071 35.142 40.8144 35.1635C40.7288 35.1777 33.1615 35.192 24.0038 35.192C14.8461 35.192 7.27884 35.1777 7.18613 35.1635C7.10054 35.142 7.02922 35.0992 7.02922 35.0707Z" fill="#ACDFEA"/>
<path d="M12.4996 30.0033C16.0586 27.6551 19.2467 25.5496 19.5819 25.3212C19.9171 25.1 20.2024 24.9144 20.2238 24.9144C20.2452 24.9144 20.452 25.0714 20.6874 25.2713C20.9228 25.4711 21.1225 25.6567 21.1296 25.6852C21.1439 25.7138 20.9014 25.8922 20.5947 26.0921C20.2951 26.2848 17.1427 28.3617 13.5909 30.7027C10.039 33.0508 7.08632 34.985 7.02927 35.0064C6.97221 35.035 6.77964 34.9636 6.60134 34.8423C6.42303 34.7281 6.22333 34.5497 6.03076 34.2642L12.4996 30.0033Z" fill="#81B3DD"/>
<path d="M26.8781 25.6852C26.8853 25.6567 27.085 25.4711 27.3203 25.2713C27.5557 25.0714 27.7768 24.9216 27.8196 24.9358C27.8552 24.9573 28.7111 25.5068 29.7096 26.1777C30.7081 26.8415 33.8819 28.9327 41.9769 34.2642L41.8486 34.4497C41.7844 34.5497 41.5847 34.7281 41.4064 34.8423C41.2281 34.9636 41.0355 35.035 40.9784 35.0064C40.9214 34.985 37.9687 33.0508 34.4168 30.7027C30.865 28.3617 27.7126 26.2848 27.413 26.0921C27.1064 25.8922 26.8639 25.7138 26.8781 25.6852Z" fill="#81B3DD"/>
<path d="M6.68705 13.0737C6.85823 12.9738 7.07219 12.8739 7.17204 12.8454C7.27189 12.8168 14.8891 12.7954 40.8716 12.8168L41.2496 13.0309C41.4564 13.1451 41.6276 13.2593 41.6276 13.2807C41.6276 13.3021 38.5679 15.8715 34.8378 18.9905C31.1005 22.1095 27.4132 25.1927 26.65 25.8351C25.8441 26.506 25.0881 27.077 24.8598 27.184C24.5603 27.3268 24.3535 27.3767 24.004 27.3767C23.6545 27.3767 23.4477 27.3268 23.1481 27.184C22.9199 27.077 22.1639 26.506 21.3579 25.8351C20.5948 25.1927 16.9075 22.1095 13.1702 18.9905C9.44008 15.8715 6.38037 13.3021 6.38037 13.2807C6.38037 13.2593 6.52301 13.1665 6.68705 13.0737Z" fill="#145587"/>
</svg>
