<svg width="25" height="25" viewBox="0 0 25 25" fill="none" xmlns="http://www.w3.org/2000/svg">
<g clip-path="url(#clip0_113_867)">
<path d="M24.52 12.4949C24.52 5.86748 19.1474 0.4949 12.52 0.4949C5.89259 0.4949 0.52002 5.86748 0.52002 12.4949C0.52002 18.4844 4.90824 23.4489 10.645 24.3491V15.9636H7.59814V12.4949H10.645V9.85115C10.645 6.84365 12.4365 5.1824 15.1776 5.1824C16.4905 5.1824 17.8638 5.41677 17.8638 5.41677V8.3699H16.3506C14.8599 8.3699 14.395 9.29491 14.395 10.2439V12.4949H17.7231L17.1911 15.9636H14.395V24.3491C20.1318 23.4489 24.52 18.4844 24.52 12.4949Z" fill="#323232"/>
</g>
<defs>
<clipPath id="clip0_113_867">
<rect width="24" height="24" fill="white" transform="translate(0.52002 0.496582)"/>
</clipPath>
</defs>
</svg>
