<svg width="25" height="25" viewBox="0 0 25 25" fill="none" xmlns="http://www.w3.org/2000/svg">
<g clip-path="url(#clip0_113_862)">
<path d="M7.59015 0.579531C6.31335 0.639771 5.44143 0.843531 4.67919 1.14305C3.89032 1.45049 3.22168 1.86305 2.5564 2.53073C1.89112 3.19841 1.48144 3.86753 1.17616 4.65761C0.880718 5.42153 0.680558 6.29417 0.624158 7.57169C0.567758 8.84921 0.555278 9.25985 0.561518 12.5186C0.567758 15.7773 0.582158 16.1858 0.644078 17.4659C0.705038 18.7425 0.908078 19.6142 1.2076 20.3767C1.51552 21.1655 1.9276 21.8339 2.59552 22.4995C3.26344 23.165 3.93208 23.5737 4.72407 23.8795C5.48727 24.1744 6.36015 24.3755 7.63743 24.4315C8.91471 24.4874 9.32583 24.5003 12.5836 24.4941C15.8413 24.4879 16.2515 24.4735 17.5314 24.4127C18.8113 24.352 19.6785 24.1475 20.4412 23.8495C21.2301 23.5408 21.8989 23.1294 22.564 22.4613C23.229 21.7931 23.6385 21.1235 23.9435 20.333C24.2392 19.5698 24.4401 18.6969 24.4955 17.4206C24.5514 16.1397 24.5646 15.7307 24.5584 12.4725C24.5521 9.21425 24.5375 8.80577 24.4768 7.52609C24.4161 6.24641 24.2128 5.37737 23.9135 4.61441C23.6051 3.82553 23.1935 3.15761 22.5258 2.49161C21.8581 1.82561 21.1881 1.41641 20.3977 1.11209C19.6341 0.816651 18.7617 0.615291 17.4844 0.560091C16.2071 0.504891 15.796 0.490731 12.537 0.496971C9.27807 0.503211 8.87007 0.517131 7.59015 0.579531ZM7.73031 22.2727C6.56031 22.2218 5.92503 22.0274 5.50167 21.8647C4.94103 21.6487 4.54168 21.3875 4.11976 20.9697C3.69784 20.5519 3.43864 20.1511 3.21976 19.5916C3.05536 19.1683 2.85736 18.5337 2.80264 17.3637C2.74312 16.0991 2.73064 15.7195 2.72368 12.5157C2.71672 9.31193 2.72896 8.93273 2.7844 7.66769C2.83432 6.49865 3.02992 5.86265 3.1924 5.43953C3.4084 4.87817 3.66856 4.47953 4.08736 4.05785C4.50616 3.63617 4.90575 3.37649 5.46567 3.15761C5.88855 2.99249 6.52311 2.79617 7.69263 2.74049C8.95815 2.68049 9.33735 2.66849 12.5406 2.66153C15.7439 2.65457 16.1241 2.66657 17.3901 2.72225C18.5591 2.77313 19.1953 2.96681 19.618 3.13025C20.1789 3.34625 20.578 3.60569 20.9997 4.02521C21.4213 4.44473 21.6813 4.84289 21.9001 5.40401C22.0655 5.82569 22.2618 6.46001 22.317 7.63025C22.3773 8.89577 22.3909 9.27521 22.3967 12.4783C22.4025 15.6813 22.3912 16.0617 22.3357 17.3263C22.2846 18.4963 22.0907 19.1318 21.9277 19.5556C21.7117 20.116 21.4513 20.5156 21.0323 20.937C20.6133 21.3585 20.2141 21.6182 19.654 21.8371C19.2316 22.0019 18.5963 22.1987 17.4277 22.2544C16.1622 22.3139 15.783 22.3264 12.5785 22.3334C9.37407 22.3403 8.99607 22.3274 7.73055 22.2727M17.5129 6.08201C17.5134 6.36684 17.5984 6.64512 17.757 6.88168C17.9156 7.11823 18.1409 7.30242 18.4042 7.41096C18.6675 7.51949 18.9571 7.5475 19.2364 7.49143C19.5157 7.43537 19.772 7.29774 19.973 7.09597C20.1741 6.8942 20.3108 6.63735 20.3658 6.35789C20.4208 6.07843 20.3918 5.78893 20.2823 5.526C20.1728 5.26306 19.9878 5.0385 19.7506 4.88073C19.5135 4.72295 19.2349 4.63904 18.9501 4.63961C18.5682 4.64037 18.2023 4.79275 17.9328 5.06324C17.6633 5.33373 17.5123 5.70018 17.5129 6.08201ZM6.39855 12.5075C6.40527 15.9107 9.16911 18.6633 12.5716 18.6568C15.9741 18.6503 18.7285 15.8867 18.7221 12.4835C18.7156 9.08033 15.951 6.32705 12.5481 6.33377C9.14511 6.34049 6.39207 9.10481 6.39855 12.5075ZM8.55999 12.5032C8.55843 11.7121 8.7915 10.9382 9.22973 10.2796C9.66796 9.62088 10.2917 9.10695 11.022 8.80274C11.7523 8.49854 12.5564 8.41773 13.3327 8.57054C14.1089 8.72335 14.8224 9.10291 15.3829 9.66122C15.9435 10.2195 16.3258 10.9315 16.4817 11.7072C16.6376 12.4828 16.56 13.2872 16.2587 14.0187C15.9574 14.7503 15.4459 15.376 14.789 15.8168C14.132 16.2577 13.3591 16.4938 12.568 16.4954C12.0427 16.4965 11.5223 16.3941 11.0365 16.194C10.5508 15.994 10.1092 15.7002 9.73705 15.3295C9.36485 14.9588 9.06934 14.5184 8.86738 14.0334C8.66542 13.5485 8.56097 13.0285 8.55999 12.5032Z" fill="#323232"/>
</g>
<defs>
<clipPath id="clip0_113_862">
<rect width="24" height="24" fill="white" transform="translate(0.560059 0.496582)"/>
</clipPath>
</defs>
</svg>
