<svg width="48" height="48" viewBox="0 0 48 48" fill="none" xmlns="http://www.w3.org/2000/svg">
<path d="M21.6745 8.60198C21.8948 8.54077 22.2926 8.46119 22.5619 8.41834C22.8312 8.37549 23.4493 8.33876 23.9389 8.33264C24.4285 8.33264 25.0773 8.36937 25.3771 8.41222C25.677 8.46119 26.1054 8.54689 26.3258 8.60198C26.5461 8.65707 26.9316 8.78562 27.1826 8.87744C27.4335 8.96926 27.8497 9.14677 28.1006 9.27532C28.3515 9.40387 28.7799 9.64872 29.0492 9.82624C29.3185 10.0038 29.7591 10.3404 30.0284 10.5792C30.2977 10.8118 30.6588 11.1668 30.8302 11.3627C31.0015 11.5586 31.2892 11.932 31.4728 12.1829C31.6564 12.4339 31.944 12.9175 32.1215 13.2542C32.2929 13.5908 32.5071 14.0622 32.5866 14.2948C32.6723 14.5274 32.7886 14.8886 32.8437 15.0906C32.8987 15.2926 32.9905 15.7027 33.0395 16.0088C33.0946 16.3332 33.1313 16.9637 33.1374 17.5391C33.1374 18.1635 33.1007 18.7756 33.0334 19.2224C32.9722 19.6081 32.8559 20.2263 32.7763 20.5997C32.6907 20.9731 32.5009 21.6281 32.3541 22.0688C32.2072 22.5096 31.9624 23.1646 31.8032 23.538C31.6441 23.9114 31.3687 24.499 31.1912 24.854C31.0138 25.2091 30.6894 25.7967 30.4752 26.1701C30.2549 26.5435 29.9427 27.0516 29.7775 27.3026C29.6122 27.5535 29.4042 27.8596 29.3124 27.9759C29.2206 28.0922 28.939 28.4717 28.682 28.8145C28.4311 29.1634 28.223 29.4511 28.223 29.4573C28.223 29.4695 28.1312 29.5858 28.0149 29.7205C27.9047 29.8551 27.5253 30.2959 27.1826 30.6999C26.8398 31.1039 26.2217 31.7895 25.8178 32.218C25.2486 32.824 24.9916 33.0443 24.7345 33.1668C24.4775 33.2892 24.3061 33.3259 24.0001 33.3259C23.6941 33.3259 23.5227 33.2892 23.2657 33.1668C23.0087 33.0443 22.7516 32.824 22.1824 32.218C21.7785 31.7895 21.1604 31.1039 20.8177 30.6999C20.4749 30.2959 20.0955 29.8551 19.9853 29.7205C19.869 29.5858 19.7772 29.4695 19.7772 29.4573C19.7772 29.4511 19.5141 29.0961 19.1958 28.6676C18.8776 28.233 18.4614 27.6515 18.2717 27.3638C18.0758 27.0761 17.7454 26.5435 17.525 26.1701C17.3108 25.7967 16.9865 25.2091 16.809 24.854C16.6315 24.499 16.3561 23.9114 16.197 23.538C16.0379 23.1646 15.793 22.5096 15.6462 22.0688C15.4993 21.6281 15.3096 20.9731 15.2239 20.5997C15.1443 20.2263 15.028 19.6081 14.9668 19.2224C14.9056 18.7939 14.8628 18.1512 14.8628 17.5697C14.8628 17.0494 14.8934 16.4128 14.9362 16.1618C14.9791 15.9108 15.0648 15.4823 15.1321 15.213C15.1994 14.9436 15.3279 14.5274 15.4136 14.2948C15.4932 14.0622 15.7074 13.5908 15.8787 13.2542C16.0562 12.9175 16.3439 12.4339 16.5275 12.1829C16.7111 11.932 16.9987 11.5586 17.1701 11.3627C17.3414 11.1668 17.7025 10.8118 17.9718 10.5792C18.2411 10.3404 18.6817 10.0038 18.951 9.82624C19.2203 9.64872 19.6487 9.40387 19.8996 9.27532C20.1506 9.14677 20.5667 8.96926 20.8177 8.87744C21.0686 8.78562 21.4541 8.65707 21.6745 8.60198Z" fill="#FB7686"/>
<path d="M14.9115 28.3614C14.9604 28.2819 15.0951 28.1655 15.2052 28.0982H15.1991C15.3888 27.9819 15.5112 27.9758 18.7059 27.9758L19.2261 28.692C19.5138 29.0899 19.7525 29.451 19.7647 29.4877C19.7708 29.549 19.422 29.5673 18.1551 29.5673C17.2616 29.5673 16.5211 29.5857 16.5088 29.6102C16.4905 29.6408 16.0376 31.269 15.4929 33.2401C14.9543 35.2112 14.5137 36.87 14.5137 36.9313C14.5137 36.9863 14.5687 37.0598 14.6361 37.0965C14.7156 37.1394 17.9593 37.1577 23.9998 37.1577C30.0404 37.1577 33.284 37.1394 33.3636 37.0965C33.4309 37.0598 33.486 36.9863 33.486 36.9313C33.486 36.87 33.0454 35.2112 32.5068 33.2401C31.9621 31.269 31.5092 29.6408 31.4908 29.6163C31.4786 29.5857 30.7381 29.5673 29.8445 29.5673C28.8041 29.5673 28.2227 29.5428 28.2227 29.5061C28.2227 29.4694 28.3818 29.2307 28.5777 28.9736C28.7735 28.7103 29.0183 28.3798 29.2937 27.9697L30.9462 27.9758C32.4884 27.9758 32.6108 27.9819 32.8005 28.0982C32.9046 28.1655 33.0392 28.2819 33.0882 28.3553C33.1372 28.4349 33.9328 30.761 34.863 33.5278C36.0258 37.0108 36.5461 38.6452 36.5461 38.8227C36.5461 38.9941 36.4971 39.1533 36.4053 39.2818C36.3318 39.392 36.1972 39.5206 36.1054 39.5695C35.9524 39.6552 34.6855 39.6675 23.9998 39.6675C13.3141 39.6675 12.0473 39.6552 11.9004 39.5695C11.8025 39.5206 11.6678 39.392 11.5944 39.2818C11.5026 39.1533 11.4536 38.9941 11.4536 38.8289C11.4536 38.6452 11.9738 37.0108 13.1366 33.5339C14.0669 30.761 14.8625 28.4349 14.9115 28.3614Z" fill="#145587"/>
<path d="M19.9606 32.2242C20.2788 32.1324 20.8174 32.01 21.154 31.9488C21.4906 31.8937 21.7721 31.8447 21.7844 31.8386C21.7905 31.8325 22.0536 32.0957 22.3658 32.4201C22.7575 32.8303 23.0267 33.0567 23.2654 33.1669C23.5225 33.2894 23.6938 33.3261 23.9998 33.3261C24.3058 33.3261 24.4772 33.2894 24.7343 33.1669C24.9729 33.0567 25.23 32.8364 26.1725 31.8508L26.6927 31.9304C26.9803 31.9733 27.3537 32.0406 27.5189 32.0835C27.6903 32.1202 28.0452 32.2181 28.3145 32.3099C28.5838 32.3956 28.9265 32.5364 29.0795 32.616C29.2325 32.7017 29.4039 32.8119 29.4712 32.867C29.5324 32.9221 29.6242 33.0567 29.6671 33.1669C29.7405 33.3383 29.7405 33.3873 29.6487 33.5832C29.5875 33.7117 29.4223 33.8831 29.2631 33.9872C29.1101 34.0851 28.8347 34.2198 28.6511 34.2871C28.4675 34.3545 28.0636 34.4769 27.7637 34.5565C27.4638 34.636 26.8824 34.7523 26.4785 34.8136C25.9093 34.8993 25.3524 34.9237 23.9998 34.9237C22.6473 34.9237 22.0904 34.8993 21.5212 34.8136C21.1173 34.7523 20.5359 34.636 20.236 34.5565C19.9361 34.4769 19.5322 34.3545 19.3486 34.2871C19.165 34.2198 18.8896 34.0851 18.7366 33.9872C18.5774 33.8831 18.4122 33.7117 18.3571 33.5832C18.2592 33.3873 18.2592 33.3383 18.3326 33.1669C18.3755 33.0567 18.4673 32.9221 18.5285 32.867C18.5958 32.8119 18.81 32.6833 19.012 32.5793C19.2139 32.4752 19.6423 32.3161 19.9606 32.2242Z" fill="#D7B434"/>
<path d="M16.3803 30.0142C16.3987 29.9346 16.4354 29.8061 16.4721 29.7204L16.5333 29.5673H19.8688L20.2054 29.9774C20.389 30.2101 20.8235 30.7181 21.1662 31.1099C21.5396 31.5384 21.766 31.8444 21.717 31.8567C21.6803 31.8751 21.3804 31.924 21.0622 31.9791C20.7439 32.0281 20.2299 32.1444 19.93 32.2301C19.6301 32.3158 19.2139 32.4749 19.012 32.579C18.81 32.6831 18.5958 32.8116 18.5285 32.8667C18.4673 32.9218 18.3755 33.0565 18.3326 33.1605C18.2592 33.338 18.2592 33.387 18.351 33.5829C18.4122 33.7114 18.5774 33.8828 18.7365 33.9869C18.8895 34.0848 19.165 34.2195 19.3486 34.2868C19.5322 34.3542 19.9361 34.4766 20.236 34.5562C20.5359 34.6358 21.1173 34.7521 21.5212 34.8133C22.0904 34.899 22.6473 34.9235 23.9998 34.9235C25.3524 34.9235 25.9093 34.899 26.4785 34.8133C26.8824 34.7521 27.4638 34.6358 27.7637 34.5562C28.0636 34.4766 28.4675 34.3542 28.6511 34.2868C28.8347 34.2195 29.1101 34.0848 29.2631 33.9869C29.4223 33.8828 29.5875 33.7114 29.6426 33.5829C29.7405 33.387 29.7405 33.338 29.6671 33.1605C29.6242 33.0565 29.5324 32.9218 29.4712 32.8667C29.4039 32.8116 29.2142 32.6953 29.0489 32.6096C28.8837 32.5178 28.5777 32.3892 28.3757 32.3219C28.1738 32.2485 27.7759 32.1444 27.4883 32.0771C27.2007 32.0158 26.8151 31.9485 26.6315 31.924C26.4479 31.8995 26.2765 31.8689 26.2459 31.8567C26.2214 31.8444 26.4846 31.5078 26.8334 31.116C27.1762 30.7181 27.6107 30.2101 28.1309 29.5673H31.4664L31.5276 29.7204C31.5643 29.8061 31.601 29.9346 31.6194 30.0081C31.6316 30.0876 31.7846 30.6447 31.956 31.2507C32.1273 31.8567 32.2742 32.4076 32.2926 32.4749C32.3048 32.5423 32.5007 33.2462 32.721 34.0359C32.9413 34.8255 33.131 35.5295 33.1494 35.5968C33.1616 35.6641 33.2412 35.9518 33.3269 36.2395C33.4126 36.5272 33.486 36.8211 33.486 36.8945C33.486 36.9741 33.4309 37.0598 33.3636 37.0965C33.284 37.1394 30.0404 37.1577 23.9998 37.1577C17.9593 37.1577 14.7156 37.1394 14.6361 37.0965C14.5688 37.0598 14.5137 36.9741 14.5137 36.9006C14.5137 36.8211 14.5871 36.5272 14.6728 36.2395C14.7585 35.9518 14.838 35.6641 14.8503 35.5968C14.8686 35.5295 15.0584 34.8255 15.2787 34.0359C15.499 33.2462 15.6949 32.5423 15.7071 32.4749C15.7255 32.4076 15.8723 31.8567 16.0437 31.2507C16.2151 30.6447 16.3681 30.0876 16.3803 30.0142Z" fill="#F9C526"/>
<path d="M22.6227 14.0619C22.7879 13.9945 23.0939 13.9088 23.2959 13.8599C23.5162 13.8109 23.8589 13.7864 24.1527 13.7987C24.4403 13.817 24.8443 13.8905 25.1319 13.9823C25.4012 14.068 25.7868 14.2455 25.9887 14.3802C26.1907 14.5087 26.5089 14.7781 26.6925 14.9801C26.8762 15.1821 27.1332 15.5493 27.2617 15.8003C27.3841 16.0513 27.531 16.4492 27.58 16.6818C27.6289 16.9144 27.6718 17.2756 27.6718 17.4776C27.6718 17.6796 27.6228 18.053 27.5555 18.3039C27.4943 18.5549 27.3658 18.9161 27.274 19.0997C27.1822 19.2833 26.9986 19.571 26.8639 19.7424C26.7293 19.9077 26.4783 20.1648 26.307 20.3056C26.1295 20.4525 25.8235 20.6484 25.6215 20.7463C25.4196 20.8504 25.0768 20.9728 24.8565 21.0218C24.6362 21.0769 24.2506 21.1197 23.9997 21.1197C23.7488 21.1197 23.3693 21.0769 23.1612 21.0279C22.947 20.9789 22.6043 20.8504 22.3962 20.7525C22.182 20.6484 21.8699 20.4525 21.6924 20.3056C21.5211 20.1648 21.2701 19.9077 21.1355 19.7424C21.0008 19.571 20.8172 19.2833 20.7254 19.0997C20.6336 18.9161 20.5051 18.5549 20.4439 18.3039C20.3766 18.053 20.3276 17.6796 20.3276 17.4776C20.3276 17.2756 20.3705 16.9144 20.4194 16.6818C20.4684 16.4492 20.6153 16.0513 20.7377 15.8003C20.8662 15.5493 21.111 15.1943 21.2824 15.0045C21.4537 14.8148 21.7536 14.5516 21.9556 14.4169C22.1514 14.2884 22.4513 14.1231 22.6227 14.0619Z" fill="white"/>
</svg>
