<svg width="48" height="48" viewBox="0 0 48 48" fill="none" xmlns="http://www.w3.org/2000/svg">
<path d="M11.7765 12.5634C11.885 12.3952 12.0966 12.086 12.2485 11.8853L12.5252 11.5109L20.1425 19.1445L19.893 19.4158C19.7573 19.5677 19.562 19.8119 19.4644 19.9584C19.3667 20.1103 19.2311 20.387 19.166 20.5823C19.0737 20.8536 19.0466 21.0543 19.0466 21.4775C19.0466 21.8953 19.0737 22.1014 19.1714 22.3727C19.2365 22.568 19.3776 22.861 19.4806 23.0238C19.5946 23.2082 20.6634 24.315 22.2259 25.8776L22.2286 25.8802C24.7542 28.4004 24.7923 28.4385 25.2479 28.6608C25.5626 28.8127 25.8339 28.8996 26.1051 28.9375C26.3656 28.9755 26.6368 28.9755 26.919 28.9375C27.2011 28.8996 27.4669 28.8182 27.7436 28.688C28.0149 28.5577 28.2645 28.3787 28.8342 27.8253L36.4841 35.4752L36.3322 35.6C36.2454 35.6651 35.947 35.8767 35.6648 36.0666C35.3827 36.2565 34.8836 36.544 34.5526 36.7068C34.2271 36.875 33.7117 37.0974 33.4133 37.2114C33.1149 37.3199 32.6374 37.4718 32.3553 37.5478C32.0732 37.6183 31.5361 37.7268 31.1617 37.7811C30.6951 37.857 30.2014 37.8896 29.5775 37.8896C29.0241 37.8896 28.4381 37.857 28.0854 37.8028C27.7599 37.7539 27.2553 37.6617 26.9569 37.5912C26.6585 37.5206 26.1703 37.3741 25.8719 37.2656C25.5735 37.1571 25.0472 36.9347 24.7054 36.7719C24.3636 36.6037 23.8373 36.3108 23.5389 36.1154C23.2405 35.9201 22.8119 35.6109 22.5894 35.4318C22.367 35.2528 20.0937 33.0175 17.5383 30.4621C14.9829 27.9067 12.7476 25.6334 12.5686 25.411C12.3895 25.1885 12.0803 24.7599 11.885 24.4615C11.6897 24.1631 11.3967 23.6368 11.2285 23.295C11.0657 22.9532 10.8433 22.427 10.7348 22.1286C10.6263 21.8302 10.4798 21.3419 10.4092 21.0435C10.3387 20.7451 10.2465 20.2405 10.1976 19.915C10.1434 19.5623 10.1108 18.9764 10.1108 18.423C10.1108 17.799 10.1434 17.3053 10.2193 16.8387C10.2736 16.4644 10.3821 15.9272 10.4526 15.6451C10.5286 15.363 10.6805 14.8855 10.789 14.5871C10.903 14.2887 11.1254 13.7842 11.2827 13.4586C11.4455 13.1385 11.668 12.7371 11.7765 12.5634Z" fill="#1F84CE"/>
<path d="M13.4963 10.4908C13.5885 10.4148 13.7947 10.3009 13.9629 10.2358C14.1745 10.149 14.3752 10.111 14.6682 10.111C15.01 10.111 15.1293 10.1381 15.4277 10.2792C15.7479 10.4257 16.0246 10.6861 18.5257 13.1927C21.1408 15.8077 21.2818 15.9597 21.3958 16.2689C21.4772 16.4859 21.5151 16.7192 21.5151 16.9742C21.5151 17.2401 21.4826 17.4517 21.3958 17.6795C21.2927 17.9454 21.1679 18.1081 20.1533 19.1444L16.3501 15.3466C14.2613 13.2578 12.5522 11.5379 12.5522 11.5216C12.5522 11.5053 12.7259 11.2992 12.9429 11.0605C13.1599 10.8217 13.4095 10.5667 13.4963 10.4908Z" fill="#F9C526"/>
<path d="M30.1308 26.6858C30.2664 26.6153 30.4834 26.5285 30.6191 26.5014C30.7547 26.4742 30.9826 26.458 31.1345 26.4742C31.281 26.4905 31.4926 26.5231 31.5957 26.5502C31.6988 26.5773 31.8941 26.675 32.0297 26.7618C32.1653 26.854 33.462 28.1182 34.9106 29.5722C36.9886 31.6556 37.5854 32.2849 37.7048 32.5182C37.8458 32.7841 37.8621 32.8709 37.8621 33.332C37.8621 33.7715 37.8404 33.8909 37.721 34.1459C37.6288 34.3412 37.4443 34.5799 37.1785 34.8349C36.956 35.0465 36.7065 35.2798 36.4677 35.4751L28.8558 27.8523L29.3712 27.3369C29.6533 27.0548 29.9952 26.7618 30.1308 26.6858Z" fill="#F9C526"/>
<path fill-rule="evenodd" clip-rule="evenodd" d="M26.116 10.111C26.4144 10.111 26.9461 10.149 27.2987 10.1924C27.6459 10.2412 28.1668 10.328 28.4489 10.3877C28.731 10.4528 29.2573 10.5993 29.6154 10.7132C29.9735 10.8326 30.6191 11.1039 31.0531 11.31C31.4872 11.5216 32.084 11.8526 32.3824 12.0479C32.6808 12.2432 33.0931 12.5416 33.3047 12.7044C33.5163 12.8671 33.9937 13.312 34.3681 13.6864C34.7425 14.0607 35.1928 14.5653 35.3772 14.804C35.5563 15.0428 35.8221 15.4225 35.9686 15.645C36.1151 15.8674 36.3755 16.3232 36.5437 16.6487C36.7119 16.9742 36.9289 17.4408 37.0212 17.6795C37.1188 17.9183 37.2707 18.3469 37.3575 18.629C37.4444 18.9111 37.5637 19.356 37.618 19.6164C37.6776 19.8823 37.7645 20.4031 37.8079 20.7829C37.8513 21.1681 37.8892 21.6835 37.8892 21.9385C37.8838 22.2152 37.8567 22.4323 37.8187 22.4865C37.7807 22.5353 37.6993 22.6004 37.6288 22.633C37.5637 22.671 37.4552 22.6981 37.3847 22.6981C37.3196 22.7035 37.2056 22.6438 37.1297 22.5733C37.0049 22.454 36.9886 22.3834 36.9506 21.8246C36.9289 21.4828 36.8693 20.9511 36.8258 20.6364C36.777 20.3217 36.6794 19.8226 36.6088 19.5242C36.5329 19.2258 36.3918 18.7484 36.2887 18.4662C36.1911 18.1841 36.0066 17.7284 35.8818 17.4625C35.757 17.1967 35.5292 16.7681 35.3772 16.5131C35.2253 16.2581 34.9324 15.8186 34.7262 15.5365C34.52 15.2543 34.0372 14.7118 33.6628 14.3374C33.2884 13.9631 32.7459 13.4802 32.4638 13.274C32.1816 13.0679 31.7422 12.7749 31.4872 12.623C31.2322 12.4656 30.8036 12.2432 30.5377 12.1184C30.2719 11.9936 29.8161 11.8092 29.534 11.7061C29.2519 11.603 28.7636 11.4565 28.4489 11.3806C28.1342 11.3046 27.6459 11.2124 27.3638 11.169C27.0817 11.1256 26.5608 11.0713 26.2028 11.0496C25.6168 11.0116 25.5463 10.9953 25.4269 10.8706C25.3401 10.7801 25.2985 10.6752 25.3021 10.5559C25.3076 10.4474 25.3564 10.328 25.4378 10.2466C25.5571 10.1218 25.606 10.111 26.116 10.111V10.111ZM26.2516 13.3988C26.5825 13.4151 27.0329 13.4639 27.2553 13.5019C27.4777 13.5399 27.8196 13.6159 28.0149 13.6647C28.2102 13.7135 28.5628 13.822 28.8016 13.9034C29.0403 13.9902 29.4201 14.1475 29.6425 14.2615C29.865 14.37 30.1959 14.549 30.375 14.6575C30.554 14.7661 30.8958 14.9993 31.1345 15.1784C31.3732 15.3629 31.8019 15.7426 32.084 16.0302C32.3661 16.3177 32.7622 16.7789 32.9629 17.061C33.1636 17.3432 33.4729 17.8531 33.6465 18.195C33.8256 18.5368 34.0534 19.0847 34.1619 19.4157C34.265 19.7466 34.3898 20.197 34.4386 20.4194C34.482 20.6418 34.5471 21.1193 34.5797 21.4774C34.6123 21.8354 34.6285 22.2098 34.6123 22.3075C34.5906 22.4106 34.52 22.5245 34.4332 22.5896C34.3464 22.6547 34.227 22.7035 34.1619 22.6981C34.0914 22.6981 33.9883 22.6764 33.9286 22.6438C33.869 22.6113 33.7822 22.5028 33.7388 22.3997C33.6953 22.2966 33.6574 22.0579 33.6574 21.8734C33.6574 21.6835 33.6194 21.3092 33.5814 21.0433C33.538 20.7775 33.4675 20.4085 33.4186 20.2295C33.3752 20.0505 33.2776 19.7466 33.2016 19.5513C33.1311 19.356 33.0063 19.0522 32.9249 18.8731C32.8435 18.6941 32.6916 18.4011 32.5831 18.2221C32.4746 18.043 32.2576 17.7175 32.1003 17.5059C31.9429 17.2889 31.612 16.9091 31.3624 16.6595C31.1182 16.4154 30.771 16.1007 30.592 15.9651C30.4129 15.824 30.082 15.6016 29.8595 15.4659C29.6371 15.3303 29.2193 15.1133 28.9372 14.9939C28.6551 14.8691 28.2156 14.7064 27.9606 14.6358C27.7056 14.5599 27.2716 14.4677 26.9949 14.4242C26.7236 14.3808 26.3384 14.3429 26.1431 14.3429C25.9478 14.3429 25.7036 14.3049 25.6005 14.2615C25.4975 14.2181 25.3889 14.1313 25.3564 14.0716C25.3238 14.0119 25.3021 13.898 25.3021 13.8112C25.3021 13.7298 25.3347 13.6267 25.3727 13.5779C25.4106 13.5345 25.4866 13.4639 25.5463 13.426C25.6222 13.3826 25.8284 13.3717 26.2516 13.3988ZM26.0888 16.665C26.2679 16.6758 26.6205 16.7192 26.8755 16.7681C27.1305 16.8115 27.4832 16.9037 27.6622 16.9688C27.8413 17.0393 28.1234 17.1641 28.2861 17.2455C28.4489 17.3269 28.7202 17.4842 28.8829 17.5927C29.0457 17.7012 29.3604 17.9617 29.5828 18.1678C29.7999 18.374 30.0874 18.6832 30.2122 18.846C30.3424 19.0088 30.5431 19.3289 30.6625 19.5513C30.7873 19.7738 30.9284 20.0667 30.9772 20.2024C31.026 20.338 31.1128 20.6201 31.1671 20.8263C31.2268 21.0325 31.2919 21.4719 31.3081 21.8029C31.3461 22.3943 31.3461 22.3997 31.1996 22.5462C31.1182 22.633 30.9989 22.6981 30.9175 22.6981C30.8415 22.6981 30.7222 22.6655 30.6462 22.6276C30.5703 22.595 30.4889 22.5028 30.4618 22.4268C30.4346 22.3509 30.3967 22.0959 30.3804 21.8572C30.3641 21.6184 30.299 21.2441 30.2393 21.0271C30.1796 20.8155 30.0657 20.4954 29.9897 20.3217C29.9138 20.1536 29.7456 19.8552 29.6154 19.6598C29.4852 19.4645 29.2519 19.177 29.0891 19.0142C28.9318 18.8514 28.6768 18.629 28.5303 18.5151C28.3784 18.4065 28.1017 18.2275 27.9064 18.1244C27.711 18.0159 27.3313 17.864 27.0654 17.788C26.7996 17.7121 26.3547 17.6307 26.0888 17.6144C25.6928 17.5819 25.5734 17.5547 25.4486 17.4517C25.3455 17.3649 25.3021 17.2726 25.3021 17.1478C25.2967 17.0502 25.351 16.9091 25.4106 16.8277C25.4703 16.7464 25.5788 16.6758 25.6439 16.665C25.709 16.6541 25.9098 16.6541 26.0888 16.665Z" fill="#89BBE4"/>
</svg>
