<svg width="22" height="25" viewBox="0 0 22 25" fill="none" xmlns="http://www.w3.org/2000/svg">
<path fill-rule="evenodd" clip-rule="evenodd" d="M10.9601 0.496763C11.1148 0.495591 11.3655 0.500279 11.5167 0.506139C11.6678 0.513171 11.8659 0.523718 11.9561 0.529578C12.0463 0.53661 12.2068 0.549502 12.3135 0.56005C12.4201 0.569426 12.5912 0.588177 12.6943 0.601069C12.7974 0.613961 12.9849 0.639744 13.1102 0.659668C13.2356 0.679592 13.4571 0.719439 13.6024 0.747567C13.7476 0.776866 13.9984 0.834293 14.1589 0.875313C14.3206 0.916332 14.5421 0.977275 14.651 1.01009C14.76 1.04408 14.9405 1.10268 15.0494 1.14135C15.1584 1.18003 15.3353 1.24566 15.442 1.28785C15.5486 1.33004 15.7173 1.40153 15.8169 1.44607C15.9165 1.4906 16.1145 1.5867 16.2563 1.65937C16.3981 1.73203 16.5938 1.83751 16.6899 1.89494C16.7871 1.95119 16.9242 2.0344 16.9945 2.08011C17.0648 2.12582 17.1914 2.2102 17.2757 2.26763C17.3601 2.32622 17.4937 2.4235 17.5745 2.48444C17.6554 2.54656 17.7819 2.64618 17.8557 2.70712C17.9295 2.76923 18.035 2.85948 18.0901 2.90753C18.1451 2.95675 18.26 3.06223 18.3467 3.1431C18.4322 3.22396 18.5857 3.37984 18.6876 3.48883C18.7896 3.599 18.9396 3.76659 19.0216 3.86386C19.1036 3.95997 19.2501 4.14514 19.3473 4.27406C19.4434 4.40297 19.5934 4.61393 19.6778 4.74285C19.7633 4.87177 19.8723 5.04288 19.9215 5.12374C19.9695 5.20461 20.0492 5.34407 20.0996 5.43432C20.15 5.52456 20.2472 5.71208 20.3163 5.85037C20.3855 5.98866 20.4827 6.19493 20.5331 6.30744C20.5835 6.41995 20.662 6.60981 20.7089 6.72936C20.7557 6.8489 20.8237 7.02821 20.8589 7.12783C20.894 7.22745 20.9573 7.41731 20.9995 7.54974C21.0416 7.68218 21.0932 7.85211 21.1155 7.92712C21.1366 8.0033 21.1494 8.06893 21.1436 8.07362C21.1389 8.07831 20.696 8.19902 20.1593 8.342C19.6239 8.48498 19.1751 8.60452 19.1622 8.60921C19.1411 8.61625 19.1352 8.60452 19.1048 8.4967C19.086 8.4299 19.0251 8.23652 18.9689 8.06541C18.9126 7.8943 18.8259 7.65522 18.7779 7.53216C18.7298 7.4091 18.6584 7.238 18.6197 7.15127C18.581 7.06454 18.499 6.88992 18.4357 6.76452C18.3725 6.63911 18.2752 6.45394 18.2178 6.35432C18.1615 6.2547 18.0678 6.1 18.0116 6.0121C17.9553 5.92303 17.8628 5.78591 17.8065 5.70739C17.7503 5.62769 17.646 5.4894 17.5733 5.39916C17.5019 5.30892 17.3905 5.17765 17.3284 5.10616C17.2652 5.03467 17.114 4.87997 16.9933 4.76043C16.8715 4.64089 16.7039 4.48618 16.6196 4.41587C16.5352 4.34672 16.404 4.24124 16.3266 4.18381C16.2493 4.12521 16.104 4.02325 16.0044 3.95762C15.9048 3.89082 15.7548 3.79706 15.6705 3.74784C15.5861 3.69861 15.415 3.60603 15.2896 3.54274C15.1643 3.47828 14.9815 3.39273 14.8854 3.35054C14.7881 3.30952 14.6253 3.24271 14.5222 3.20404C14.419 3.16536 14.2316 3.1009 14.1062 3.06223C13.9808 3.02238 13.7641 2.96144 13.6258 2.92628C13.4875 2.89229 13.2661 2.8419 13.1337 2.81611C13.0013 2.79033 12.7821 2.75283 12.6474 2.73407C12.5126 2.71415 12.2959 2.68719 12.167 2.6743C12.0381 2.66141 11.8565 2.645 11.7627 2.63914C11.669 2.63211 11.4112 2.62274 11.1886 2.61922C10.9378 2.61453 10.6801 2.61805 10.509 2.62625C10.3578 2.63446 10.1469 2.64852 10.0403 2.6579C9.93367 2.66727 9.77549 2.68251 9.68878 2.69305C9.60208 2.70243 9.44389 2.72353 9.33727 2.73993C9.23064 2.75634 9.04902 2.78798 8.93302 2.81025C8.81702 2.83369 8.64595 2.87002 8.55221 2.89229C8.45847 2.91456 8.32372 2.94855 8.25342 2.96847C8.18312 2.98839 8.03548 3.03293 7.92533 3.06692C7.81519 3.10208 7.65467 3.15716 7.56796 3.18997C7.48125 3.22279 7.32775 3.2849 7.22816 3.3271C7.12856 3.37046 6.95397 3.45133 6.84149 3.50758C6.729 3.56384 6.56262 3.65408 6.47239 3.70682C6.38217 3.75956 6.24273 3.84511 6.16189 3.89785C6.08104 3.95059 5.94394 4.04669 5.85724 4.11115C5.77053 4.17561 5.64633 4.27288 5.58188 4.32562C5.51744 4.37953 5.3862 4.49439 5.29012 4.58229C5.19521 4.67136 5.06515 4.79793 5.00188 4.86591C4.93977 4.93388 4.83315 5.05225 4.76753 5.1296C4.70191 5.20695 4.58357 5.35462 4.50624 5.45776C4.4289 5.56089 4.31173 5.72731 4.24611 5.82693C4.1805 5.92655 4.08207 6.08477 4.027 6.17852C3.9731 6.27228 3.88756 6.42464 3.83952 6.5184C3.79031 6.61216 3.71532 6.76452 3.67197 6.85827C3.62861 6.95203 3.56534 7.09384 3.53136 7.17471C3.49621 7.25558 3.43176 7.41848 3.38724 7.53802C3.34271 7.65756 3.27827 7.83922 3.24546 7.94236C3.21148 8.04549 3.16109 8.21191 3.1318 8.31153C3.10251 8.41115 3.04743 8.61976 3.00994 8.77446C2.97127 8.92916 2.91972 9.16122 2.89394 9.29013C2.86816 9.41905 2.83184 9.61946 2.81192 9.73549C2.79317 9.85151 2.76622 10.0226 2.75333 10.1164C2.73927 10.2101 2.71818 10.3754 2.70646 10.4856C2.69357 10.5957 2.67483 10.7715 2.66545 10.8782C2.65491 10.9848 2.63967 11.1852 2.6303 11.3235C2.61975 11.4618 2.60687 11.7314 2.59866 11.9212C2.59046 12.1322 2.58812 12.4428 2.59163 12.7182C2.59632 12.9666 2.60452 13.2643 2.61155 13.3803C2.61741 13.4964 2.63147 13.6968 2.64085 13.8257C2.65139 13.9546 2.67014 14.1632 2.68303 14.2886C2.69592 14.414 2.71701 14.5992 2.7299 14.6988C2.74161 14.7984 2.77091 14.9989 2.79434 15.1442C2.8166 15.2895 2.85996 15.5262 2.88808 15.6716C2.91737 15.8169 2.97127 16.0618 3.00994 16.2165C3.04743 16.3712 3.10251 16.5799 3.1318 16.6795C3.16109 16.7791 3.21148 16.9455 3.24546 17.0486C3.27827 17.1518 3.34271 17.3334 3.38724 17.453C3.43176 17.5725 3.49738 17.7366 3.53253 17.8186C3.56768 17.9018 3.63564 18.0542 3.68368 18.1585C3.7329 18.264 3.81843 18.4339 3.8735 18.5371C3.92857 18.6402 4.00825 18.7832 4.05043 18.8535C4.09262 18.9238 4.1805 19.0645 4.24611 19.1641C4.31173 19.2637 4.4289 19.4301 4.50624 19.5332C4.58357 19.6364 4.69957 19.7817 4.76284 19.8567C4.82729 19.9305 4.93392 20.0513 5.00188 20.1239C5.06984 20.1966 5.20107 20.3267 5.29481 20.4122C5.38855 20.4978 5.52798 20.6208 5.60532 20.6841C5.68265 20.7474 5.81505 20.8494 5.89825 20.9103C5.98144 20.9713 6.12205 21.0662 6.20875 21.1224C6.29546 21.1787 6.43841 21.2643 6.52512 21.3147C6.61183 21.365 6.74658 21.4365 6.82391 21.4764C6.90125 21.5151 7.04068 21.5807 7.13442 21.6229C7.22816 21.6639 7.37814 21.7272 7.46836 21.7624C7.55858 21.7975 7.72497 21.8573 7.83746 21.8948C7.94994 21.9323 8.11164 21.9827 8.19483 22.0061C8.27802 22.0296 8.43152 22.0694 8.53463 22.094C8.63774 22.1186 8.81702 22.1573 8.93302 22.1807C9.04902 22.203 9.23064 22.2347 9.33727 22.2511C9.44389 22.2675 9.62785 22.2921 9.74737 22.305C9.86689 22.3179 10.0673 22.3366 10.1926 22.346C10.318 22.3565 10.6109 22.3671 10.8429 22.3718C11.1031 22.3753 11.3749 22.373 11.5518 22.3647C11.71 22.3565 11.9338 22.3437 12.0498 22.3331C12.1658 22.3237 12.3509 22.305 12.4599 22.2933C12.5689 22.2804 12.7435 22.2558 12.8466 22.2393C12.9497 22.2229 13.0997 22.1972 13.1805 22.1807C13.2614 22.1643 13.3856 22.1386 13.4559 22.1221C13.5262 22.1057 13.6691 22.0694 13.7723 22.0413C13.8754 22.0132 14.0546 21.9569 14.1706 21.9182C14.2866 21.8784 14.4495 21.8186 14.5339 21.7846C14.6182 21.7495 14.7495 21.692 14.8268 21.6569C14.9041 21.6205 15.0354 21.5549 15.1197 21.5104C15.2041 21.4658 15.34 21.3885 15.4244 21.3381C15.5088 21.2877 15.64 21.2033 15.7173 21.1506C15.7947 21.0967 15.9212 21.0053 15.9985 20.9467C16.0759 20.8869 16.2048 20.7826 16.2856 20.7146C16.3665 20.6455 16.5457 20.4767 16.684 20.3372C16.8234 20.1978 16.9922 20.0149 17.0589 19.9305C17.1269 19.8462 17.2218 19.7196 17.2722 19.6493C17.3214 19.579 17.3987 19.4594 17.4444 19.3832C17.4901 19.3082 17.564 19.1734 17.6085 19.0844C17.653 18.9965 17.7104 18.8734 17.7362 18.8125C17.762 18.7515 17.8042 18.6402 17.8299 18.5664C17.8569 18.4925 17.8991 18.3554 17.9249 18.2616C17.9506 18.1679 17.9846 18.0237 18.001 17.9394C18.0174 17.855 18.0397 17.7108 18.0514 17.6171C18.0666 17.4917 18.0713 17.3627 18.0713 17.1248C18.0713 16.8857 18.0666 16.7603 18.0502 16.6385C18.0397 16.5482 18.0198 16.4193 18.0069 16.3513C17.994 16.2833 17.967 16.165 17.9483 16.0876C17.9284 16.0103 17.892 15.8849 17.8663 15.8087C17.8417 15.7337 17.7913 15.6048 17.7561 15.5216C17.721 15.4395 17.6624 15.32 17.6261 15.2555C17.5897 15.1911 17.5218 15.0797 17.4761 15.0094C17.4292 14.9391 17.3472 14.8254 17.2933 14.7574C17.2382 14.6894 17.1339 14.5722 17.0589 14.4949C16.9851 14.4187 16.8691 14.3086 16.8012 14.25C16.7332 14.1914 16.6196 14.0999 16.5492 14.0472C16.4789 13.9945 16.3653 13.9171 16.2973 13.8737C16.2294 13.8316 16.1731 13.7976 16.172 13.7999C16.1696 13.8011 16.1555 13.889 16.138 13.9956C16.1216 14.1023 16.0876 14.2921 16.0618 14.4175C16.036 14.543 15.9985 14.7094 15.9798 14.7867C15.9599 14.8641 15.9212 15.0059 15.8931 15.1032C15.865 15.1993 15.8134 15.361 15.7782 15.4606C15.7419 15.5602 15.6833 15.7138 15.647 15.8005C15.6107 15.8872 15.5287 16.0618 15.4642 16.1872C15.401 16.3126 15.3002 16.492 15.2416 16.5857C15.183 16.6795 15.0893 16.8178 15.0342 16.8951C14.978 16.9713 14.8877 17.0873 14.8327 17.153C14.7776 17.2174 14.6721 17.3334 14.5983 17.4108C14.5245 17.487 14.4085 17.5971 14.3405 17.6557C14.2726 17.7143 14.1542 17.8093 14.0769 17.8667C13.9996 17.9241 13.873 18.0108 13.7957 18.0601C13.7184 18.1093 13.5602 18.1972 13.4442 18.257C13.3282 18.3156 13.1512 18.3953 13.0516 18.4339C12.952 18.4738 12.8091 18.5242 12.7353 18.5476C12.6615 18.5699 12.5291 18.6074 12.4423 18.6296C12.3556 18.6519 12.1975 18.6859 12.0908 18.7058C11.9842 18.7246 11.8026 18.7515 11.6866 18.7644C11.5706 18.7785 11.362 18.7937 11.2237 18.8008C11.0515 18.809 10.8945 18.809 10.7258 18.8008C10.591 18.7937 10.4082 18.7808 10.3215 18.7703C10.2348 18.7609 10.1001 18.7422 10.0227 18.7293C9.94539 18.7164 9.82119 18.6929 9.74737 18.6765C9.67355 18.6601 9.5306 18.6238 9.431 18.5957C9.33141 18.5675 9.18846 18.523 9.11464 18.496C9.04082 18.4691 8.91076 18.4187 8.82756 18.3824C8.74437 18.3472 8.62837 18.2933 8.56979 18.2652C8.5112 18.2359 8.40926 18.1796 8.3413 18.1409C8.27334 18.1023 8.14913 18.0237 8.06594 17.9675C7.98275 17.9112 7.85503 17.8186 7.78473 17.7624C7.71442 17.705 7.57382 17.5772 7.47422 17.4764C7.37345 17.3768 7.25159 17.2444 7.20355 17.1834C7.15434 17.1225 7.07466 17.0135 7.02662 16.9432C6.97858 16.8728 6.91765 16.7767 6.89187 16.7322C6.86492 16.6877 6.81219 16.5869 6.77353 16.5095C6.73486 16.4322 6.68213 16.3162 6.65635 16.2517C6.63058 16.1872 6.59074 16.0759 6.56847 16.0056C6.54621 15.9353 6.51575 15.8345 6.50286 15.7829C6.48997 15.7313 6.46888 15.6341 6.45599 15.5661C6.44193 15.4981 6.42318 15.3821 6.41381 15.3083C6.40326 15.2344 6.39272 15.0598 6.38803 14.9215C6.38451 14.7668 6.38686 14.6062 6.39506 14.5054C6.40209 14.4152 6.41732 14.2863 6.4267 14.2183C6.43607 14.1503 6.45833 14.0343 6.47474 13.9605C6.49114 13.8866 6.52278 13.7648 6.54504 13.6909C6.5673 13.6171 6.60949 13.4952 6.63878 13.4214C6.66807 13.3475 6.71963 13.228 6.75361 13.1577C6.78876 13.0874 6.85438 12.9666 6.8989 12.8905C6.9446 12.8155 7.02076 12.6994 7.06646 12.635C7.11333 12.5693 7.20004 12.4592 7.25862 12.3912C7.31721 12.3232 7.4379 12.1955 7.52812 12.1087C7.61834 12.022 7.75426 11.9013 7.8316 11.8415C7.90893 11.7818 8.03782 11.6892 8.11867 11.6353C8.19952 11.5814 8.33895 11.4958 8.42918 11.4454C8.5194 11.395 8.66938 11.3188 8.76312 11.2755C8.85686 11.2333 8.9834 11.1782 9.04433 11.1536C9.10526 11.129 9.25525 11.0762 9.37828 11.0364C9.50131 10.9954 9.69816 10.9379 9.81767 10.9086C9.93719 10.8793 10.1059 10.8418 10.1926 10.8266C10.2793 10.8102 10.4059 10.7903 10.4738 10.7797C10.5418 10.7703 10.6683 10.7539 10.7551 10.7446C10.8418 10.7352 11.0035 10.7199 11.1124 10.7117C11.2413 10.7024 11.5565 10.6965 12.0088 10.6965C12.4693 10.6965 12.7716 10.7012 12.8993 10.7117C13.0059 10.7199 13.2004 10.7375 13.3329 10.7504C13.4653 10.7621 13.6844 10.7891 13.8191 10.8078C13.9539 10.8278 14.0746 10.8465 14.0863 10.8489C14.0996 10.8528 14.1062 10.8477 14.1062 10.8336C14.1062 10.8231 14.0933 10.7481 14.0769 10.6672C14.0605 10.5863 14.0289 10.4516 14.0066 10.3684C13.9855 10.2851 13.9457 10.1551 13.9199 10.0812C13.8953 10.0074 13.8472 9.88316 13.8133 9.80581C13.7805 9.72845 13.7242 9.61243 13.6879 9.54797C13.6516 9.48351 13.593 9.38624 13.5555 9.33115C13.5192 9.27607 13.4489 9.18466 13.4008 9.12606C13.3528 9.06746 13.2696 8.97839 13.2145 8.92799C13.1606 8.8776 13.0868 8.81314 13.0516 8.78618C13.0165 8.75923 12.9427 8.70766 12.8876 8.67133C12.8325 8.63617 12.7118 8.56937 12.6181 8.52366C12.5244 8.47912 12.3767 8.41818 12.29 8.38888C12.2033 8.36075 12.0686 8.32325 11.9912 8.30567C11.9139 8.28809 11.7827 8.26465 11.6983 8.25293C11.6139 8.24004 11.4722 8.2248 11.3819 8.21777C11.2917 8.21191 11.1417 8.20605 11.048 8.20605C10.9542 8.20605 10.8066 8.21191 10.7199 8.21894C10.6332 8.2248 10.5102 8.23887 10.4469 8.24824C10.3848 8.25762 10.2735 8.27754 10.202 8.29278C10.1294 8.30919 10.0227 8.33614 9.96414 8.35255C9.90555 8.37013 9.8083 8.40177 9.74737 8.42404C9.68644 8.44748 9.56224 8.50139 9.47201 8.54593C9.38179 8.59046 9.2447 8.66781 9.16737 8.71938C9.09003 8.77095 8.96817 8.86353 8.89787 8.9233C8.82756 8.98425 8.72797 9.07918 8.67758 9.13309C8.6272 9.187 8.54049 9.29248 8.48542 9.36631C8.42918 9.44015 8.37997 9.50695 8.37528 9.51281C8.36942 9.51984 8.02962 9.29248 7.53163 8.95026C7.07232 8.63382 6.68565 8.36778 6.67276 8.35841C6.65167 8.34083 6.65167 8.33849 6.70088 8.26465C6.729 8.22246 6.79931 8.12518 6.85789 8.04901C6.91648 7.97165 7.02076 7.84508 7.08989 7.76773C7.15785 7.68921 7.26331 7.57787 7.32424 7.51927C7.384 7.46067 7.48359 7.36809 7.54452 7.31535C7.60545 7.26144 7.72731 7.16533 7.81402 7.0997C7.90073 7.03407 8.03548 6.94148 8.11281 6.89226C8.19015 6.84304 8.32724 6.76334 8.41746 6.71412C8.50768 6.6649 8.65532 6.59341 8.74554 6.55356C8.83577 6.51371 8.97052 6.45746 9.04433 6.4305C9.11815 6.40237 9.25056 6.35901 9.33727 6.33323C9.42397 6.30627 9.54818 6.27228 9.61262 6.25588C9.67707 6.24064 9.79893 6.21368 9.88212 6.19728C9.96531 6.18204 10.0708 6.16212 10.1165 6.15509C10.1622 6.14923 10.2676 6.13516 10.3508 6.12579C10.434 6.11641 10.6215 6.10235 10.7668 6.09531C10.9671 6.08477 11.0995 6.08477 11.3175 6.09531C11.4757 6.10235 11.6784 6.11641 11.7686 6.12579C11.8588 6.13516 12.0276 6.1586 12.1436 6.17852C12.2596 6.19728 12.4306 6.23244 12.5244 6.2547C12.6181 6.27814 12.7657 6.31799 12.8524 6.34377C12.9392 6.37073 13.0973 6.42581 13.204 6.468C13.3106 6.5102 13.4817 6.58637 13.5848 6.63794C13.6879 6.68951 13.8332 6.7692 13.907 6.81374C13.9808 6.85945 14.0839 6.92625 14.1355 6.96258C14.187 6.99774 14.2925 7.07861 14.3698 7.14072C14.4472 7.20166 14.5761 7.31535 14.6557 7.3927C14.7354 7.46888 14.8514 7.59076 14.9123 7.66108C14.9733 7.7314 15.0612 7.84039 15.108 7.90134C15.1537 7.96228 15.2287 8.06776 15.2744 8.13573C15.3201 8.20371 15.3951 8.32442 15.4408 8.40529C15.4877 8.48615 15.5591 8.62093 15.6001 8.70414C15.64 8.78735 15.7009 8.91979 15.7326 8.99714C15.7654 9.07449 15.8157 9.20341 15.8439 9.28427C15.8732 9.36514 15.9165 9.49406 15.9399 9.57141C15.9634 9.64876 16.0009 9.78354 16.0231 9.87026C16.0454 9.95699 16.0852 10.1316 16.1098 10.257C16.1345 10.3824 16.1684 10.5805 16.1848 10.6965C16.2012 10.8125 16.2223 11.0047 16.2329 11.1243C16.2423 11.2438 16.2551 11.3727 16.268 11.4794L16.4028 11.5392C16.4766 11.572 16.6278 11.6446 16.7367 11.6997C16.8457 11.756 17.0156 11.8474 17.1117 11.9037C17.2089 11.9599 17.3695 12.0595 17.4691 12.1263C17.5686 12.1931 17.7139 12.2939 17.7913 12.3525C17.8686 12.4099 17.9998 12.5143 18.0842 12.5846C18.1686 12.6537 18.3396 12.8143 18.465 12.9409C18.5916 13.0663 18.7451 13.2303 18.8072 13.3042C18.8681 13.378 18.963 13.4975 19.0157 13.5679C19.0685 13.6382 19.1563 13.7624 19.2091 13.8433C19.2618 13.9241 19.3368 14.0449 19.3755 14.1128C19.4141 14.1808 19.4856 14.3144 19.5348 14.4117C19.5828 14.5078 19.6485 14.6508 19.6813 14.7281C19.7129 14.8055 19.7633 14.9344 19.7926 15.0153C19.8219 15.0961 19.8687 15.2438 19.898 15.3434C19.9273 15.443 19.9695 15.6095 19.993 15.7126C20.0164 15.8157 20.048 15.9763 20.0633 16.07C20.0797 16.1638 20.1008 16.3138 20.1101 16.4041C20.1207 16.4943 20.1336 16.6467 20.1406 16.7439C20.1464 16.84 20.1523 17.0229 20.1523 17.1483C20.1523 17.2737 20.1464 17.453 20.1406 17.5467C20.1336 17.6405 20.123 17.7671 20.1172 17.828C20.1101 17.889 20.0961 17.9979 20.0867 18.0683C20.0761 18.1386 20.0527 18.2792 20.034 18.3788C20.014 18.4785 19.9754 18.6531 19.9461 18.7656C19.9168 18.8781 19.8594 19.0703 19.8184 19.1934C19.7774 19.3164 19.7094 19.4981 19.6684 19.5977C19.6262 19.6973 19.5618 19.845 19.5231 19.9259C19.4856 20.0067 19.4176 20.138 19.3731 20.2189C19.3298 20.2997 19.2618 20.4181 19.2231 20.4825C19.1833 20.547 19.106 20.6677 19.0509 20.7521C18.9946 20.8365 18.9009 20.9689 18.8411 21.0474C18.7826 21.1271 18.6677 21.2725 18.5857 21.3697C18.5025 21.4682 18.3361 21.651 18.2131 21.7764C18.0901 21.9006 17.9167 22.0706 17.8264 22.1526C17.7362 22.2358 17.5909 22.3612 17.5042 22.4339C17.4175 22.5054 17.2617 22.6284 17.1585 22.7058C17.0554 22.7843 16.889 22.9015 16.7894 22.9671C16.6899 23.034 16.5176 23.1418 16.4086 23.2062C16.2997 23.2719 16.0958 23.3832 15.9575 23.4523C15.8193 23.5227 15.64 23.6094 15.5591 23.6446C15.4783 23.6797 15.3307 23.7418 15.2311 23.7817C15.1315 23.8215 14.9334 23.893 14.7917 23.9399C14.6499 23.9868 14.4472 24.0501 14.3405 24.0794C14.2339 24.1087 14.057 24.1532 13.948 24.179C13.839 24.2048 13.6516 24.2446 13.532 24.2669C13.4125 24.2903 13.2309 24.322 13.1278 24.3384C13.0247 24.3536 12.8536 24.377 12.747 24.3899C12.6404 24.4028 12.4669 24.4216 12.3603 24.431C12.2537 24.4415 12.0885 24.4544 11.9912 24.4614C11.8951 24.4673 11.6866 24.4778 11.5284 24.4849C11.3702 24.4907 11.1382 24.4966 11.0128 24.4966C10.8875 24.4966 10.6601 24.4907 10.509 24.4849C10.3578 24.4778 10.1258 24.4649 9.99343 24.4556C9.86103 24.445 9.65598 24.4263 9.53646 24.4134C9.41694 24.4005 9.21423 24.3747 9.08534 24.3559C8.95645 24.3372 8.76195 24.3055 8.65181 24.2856C8.54166 24.2657 8.34481 24.2259 8.21241 24.1954C8.08 24.1661 7.86675 24.1133 7.73786 24.0782C7.60897 24.043 7.41095 23.9856 7.29846 23.9493C7.18598 23.9141 6.98795 23.8461 6.85906 23.7981C6.73017 23.7489 6.5427 23.675 6.4431 23.6328C6.3435 23.5906 6.16189 23.5074 6.03885 23.4488C5.91582 23.3891 5.73186 23.2941 5.62875 23.2367C5.52564 23.1804 5.38034 23.0961 5.30652 23.0515C5.23271 23.0058 5.09561 22.9179 5.00188 22.8558C4.90814 22.7937 4.78159 22.707 4.72066 22.6624C4.65973 22.6179 4.54842 22.5347 4.4746 22.4773C4.40078 22.4187 4.27658 22.3179 4.19924 22.2522C4.12191 22.1866 3.98013 22.0589 3.88288 21.9686C3.78679 21.8784 3.65673 21.7518 3.5958 21.6885C3.53487 21.6241 3.43645 21.5198 3.37903 21.4553C3.32045 21.3908 3.21968 21.2748 3.15641 21.1975C3.09196 21.1201 2.99354 20.9982 2.93964 20.9279C2.88456 20.8576 2.79903 20.7439 2.75099 20.6759C2.70178 20.608 2.60921 20.4732 2.54476 20.3771C2.48032 20.2798 2.38307 20.1274 2.32799 20.0372C2.2741 19.947 2.18622 19.7958 2.13349 19.6997C2.08076 19.6047 1.98702 19.4254 1.92492 19.3012C1.86282 19.1781 1.76674 18.9766 1.71284 18.8535C1.65777 18.7304 1.57457 18.5335 1.5277 18.414C1.48084 18.2945 1.40702 18.0999 1.36601 17.9804C1.32382 17.8608 1.25821 17.6604 1.21954 17.535C1.18087 17.4096 1.12463 17.2198 1.09534 17.1131C1.06604 17.0065 1.01566 16.8084 0.982852 16.6736C0.950043 16.5388 0.894972 16.2845 0.85982 16.1111C0.824669 15.9376 0.780143 15.6974 0.761395 15.5778C0.741476 15.4583 0.709839 15.2473 0.691092 15.109C0.671172 14.9707 0.643051 14.7328 0.626647 14.5816C0.610243 14.4304 0.586808 14.1691 0.573919 14.0015C0.56103 13.8339 0.543454 13.5784 0.535252 13.4331C0.52705 13.2784 0.52002 12.8916 0.52002 12.4955C0.52002 12.0994 0.52705 11.7126 0.535252 11.5579C0.543454 11.4126 0.56103 11.1571 0.573919 10.9895C0.586808 10.8219 0.607899 10.5852 0.620788 10.4621C0.632505 10.3391 0.659455 10.1176 0.679374 9.96988C0.698122 9.82221 0.735617 9.57141 0.761395 9.41319C0.787173 9.25497 0.835214 8.99714 0.866851 8.83892C0.899659 8.6807 0.952387 8.44396 0.984023 8.31153C1.01566 8.1791 1.06604 7.98455 1.09534 7.8779C1.12463 7.77125 1.18087 7.58139 1.21954 7.45598C1.25821 7.33058 1.32382 7.13017 1.36601 7.01063C1.40702 6.89109 1.48084 6.69654 1.5277 6.577C1.57457 6.45746 1.65777 6.25939 1.71284 6.13751C1.76674 6.01562 1.86516 5.80701 1.93195 5.67457C1.99757 5.54214 2.09131 5.36283 2.14052 5.2761C2.18856 5.18937 2.2741 5.04405 2.32799 4.9538C2.38307 4.86356 2.48032 4.71003 2.54476 4.61393C2.60921 4.51666 2.70178 4.38305 2.75099 4.31508C2.79903 4.2471 2.88456 4.13459 2.93964 4.0631C2.99354 3.99161 3.10251 3.858 3.18101 3.76424C3.25952 3.67049 3.39895 3.51227 3.49269 3.41265C3.58526 3.31303 3.73758 3.1595 3.83132 3.0716C3.92389 2.98371 4.05278 2.86534 4.11722 2.80908C4.18167 2.75283 4.31407 2.64266 4.41015 2.56531C4.50741 2.48796 4.67262 2.36256 4.77925 2.28755C4.88587 2.21137 5.04171 2.10589 5.12491 2.05315C5.2081 1.99924 5.35339 1.91134 5.44713 1.85626C5.54087 1.80118 5.71663 1.70507 5.83966 1.64179C5.96269 1.5785 6.149 1.48826 6.25562 1.44021C6.36225 1.39216 6.54856 1.31363 6.67159 1.26441C6.79462 1.21636 6.97858 1.14721 7.08169 1.11205C7.1848 1.07689 7.35822 1.02181 7.46836 0.988995C7.5785 0.956179 7.74958 0.908128 7.84917 0.882344C7.94877 0.856561 8.12804 0.813198 8.24756 0.787414C8.36708 0.760458 8.56393 0.721783 8.68696 0.699515C8.80999 0.67842 9.00215 0.646776 9.11464 0.630369C9.22712 0.613961 9.41694 0.590521 9.53646 0.577629C9.65598 0.564738 9.86454 0.545986 9.99929 0.535438C10.134 0.52489 10.3426 0.511999 10.4621 0.507311C10.5816 0.502623 10.8054 0.496763 10.9601 0.496763ZM11.3175 12.8237C11.1921 12.8307 11.021 12.8448 10.9367 12.8541C10.8535 12.8635 10.7211 12.8811 10.6437 12.894C10.5664 12.9069 10.434 12.9326 10.3508 12.9514C10.2676 12.9702 10.1364 13.0053 10.0614 13.0276C9.98523 13.051 9.87392 13.0885 9.81533 13.112C9.75557 13.1354 9.64074 13.187 9.55989 13.228C9.47904 13.2678 9.3689 13.3288 9.31383 13.3651C9.25876 13.4003 9.18025 13.4565 9.13807 13.4905C9.09589 13.5233 9.01738 13.5936 8.96466 13.6476C8.91076 13.7003 8.83811 13.7812 8.80413 13.8257C8.76898 13.8702 8.71391 13.9523 8.6811 14.0074C8.64829 14.0624 8.60142 14.1597 8.57564 14.2242C8.55104 14.2886 8.5194 14.3859 8.50651 14.441C8.49245 14.4961 8.47605 14.5957 8.46902 14.6637C8.46199 14.7316 8.45847 14.8418 8.46199 14.9098C8.46667 14.9778 8.47722 15.0774 8.48776 15.1325C8.49831 15.1875 8.5194 15.2743 8.5358 15.3258C8.55221 15.3774 8.58853 15.4676 8.61548 15.5251C8.64243 15.5837 8.68813 15.6645 8.71625 15.7067C8.74437 15.7489 8.79944 15.8228 8.83928 15.8708C8.87912 15.9189 8.94825 15.9903 8.99278 16.029C9.0373 16.0677 9.09706 16.1193 9.12636 16.1415C9.15565 16.165 9.21775 16.2083 9.26462 16.2388C9.31032 16.2681 9.3982 16.3185 9.45795 16.349C9.51654 16.3806 9.61848 16.4275 9.68293 16.4545C9.74737 16.4802 9.86572 16.5213 9.94656 16.5447C10.0274 16.5693 10.154 16.6009 10.2278 16.6162C10.3016 16.6302 10.4317 16.6525 10.5149 16.6631C10.6238 16.6783 10.7515 16.6842 10.966 16.6842C11.1359 16.6842 11.3233 16.6783 11.3995 16.6689C11.4733 16.6607 11.5846 16.6467 11.6456 16.6373C11.7065 16.6267 11.7944 16.6115 11.8389 16.6021C11.8834 16.5927 11.9713 16.5716 12.0322 16.5541C12.0932 16.5377 12.2021 16.5013 12.2724 16.4744C12.3427 16.4474 12.4517 16.3994 12.5126 16.3689C12.5736 16.3384 12.6685 16.2845 12.7236 16.2482C12.7786 16.213 12.8548 16.1603 12.8935 16.1298C12.9321 16.1005 13.013 16.029 13.0739 15.9704C13.1348 15.913 13.2239 15.8181 13.2719 15.7595C13.3211 15.702 13.402 15.5907 13.4524 15.5134C13.5039 15.436 13.5836 15.2965 13.6305 15.2028C13.6785 15.109 13.7406 14.9719 13.7699 14.8981C13.7992 14.8242 13.8437 14.6977 13.8695 14.6168C13.8953 14.5359 13.9363 14.3988 13.9586 14.3121C13.982 14.2253 14.016 14.0753 14.0347 13.9781C14.0535 13.882 14.0828 13.7097 14.0992 13.5972C14.1156 13.4847 14.1367 13.31 14.146 13.2104C14.1566 13.1108 14.1636 13.0276 14.1613 13.0264C14.1601 13.0252 14.0956 13.0112 14.0183 12.9948C13.941 12.9795 13.7957 12.9526 13.6961 12.9362C13.5965 12.9198 13.4278 12.8951 13.3211 12.8823C13.2145 12.8694 13.0306 12.8518 12.911 12.8412C12.7915 12.8319 12.5595 12.819 12.3955 12.8119C12.2314 12.8061 12.0252 12.8014 11.9385 12.8026C11.8518 12.8037 11.7276 12.8061 11.6631 12.8084C11.5987 12.8096 11.4429 12.8166 11.3175 12.8237Z" fill="#323232"/>
</svg>
