<svg width="22" height="25" viewBox="0 0 22 25" fill="none" xmlns="http://www.w3.org/2000/svg">
<g clip-path="url(#clip0_113_864)">
<path d="M18.3893 5.3062C17.0944 4.4634 16.1605 3.11431 15.8687 1.54249C15.806 1.20296 15.7711 0.853194 15.7711 0.495605H11.639L11.6324 17.0314C11.563 18.8831 10.0366 20.3695 8.16587 20.3695C7.5841 20.3695 7.03669 20.2244 6.5544 19.971C5.44873 19.39 4.69213 18.233 4.69213 16.9014C4.69213 14.9888 6.25055 13.4326 8.16527 13.4326C8.52277 13.4326 8.8658 13.4916 9.19014 13.5928V9.38055C8.85435 9.33479 8.51312 9.3065 8.16527 9.3065C3.9717 9.3065 0.560059 12.7132 0.560059 16.9014C0.560059 19.4707 1.84538 21.7445 3.80712 23.1194C5.0424 23.9857 6.54535 24.4956 8.16587 24.4956C12.3594 24.4956 15.7711 21.0889 15.7711 16.9014V8.51607C17.3916 9.67733 19.3774 10.3618 21.52 10.3618V6.23569C20.3661 6.23569 19.2912 5.89315 18.3893 5.3062Z" fill="#323232"/>
</g>
<defs>
<clipPath id="clip0_113_864">
<rect width="20.96" height="24" fill="white" transform="translate(0.560059 0.496582)"/>
</clipPath>
</defs>
</svg>
