<svg width="166" height="166" viewBox="0 0 166 166" fill="none" xmlns="http://www.w3.org/2000/svg">
<rect x="1.81836" y="1.70312" width="162.594" height="162.594" rx="81.2968" stroke="#8CC539" stroke-width="3" stroke-dasharray="7.65 7.65"/>
<rect x="8.31836" y="8.20312" width="149.594" height="149.594" rx="74.7968" fill="#8CC539"/>
<path d="M106.945 38.0551C107.069 37.78 108.62 36.1158 110.569 34.1766L113.986 30.7656H114.59C115.071 30.7656 115.276 30.8344 115.565 31.137C115.867 31.4396 115.949 31.6459 115.935 32.7599L112.476 36.2396C110.061 38.6603 108.88 39.7468 108.565 39.8431C108.222 39.9531 108.016 39.9256 107.618 39.7468C107.261 39.568 107.041 39.348 106.918 39.0179C106.753 38.6053 106.753 38.4677 106.945 38.0551Z" fill="black"/>
<path d="M51.1051 32.7111C51.0776 32.1885 51.1463 32.0372 51.4757 31.7071C51.7914 31.4045 51.9972 31.322 53.1227 31.322L56.6364 34.8705C58.9698 37.2086 60.1913 38.529 60.2462 38.7765C60.3011 39.0241 60.2325 39.3542 60.0952 39.6705C59.9168 40.0281 59.6972 40.2482 59.3678 40.372C58.956 40.537 58.8188 40.537 58.407 40.3445C58.1325 40.2207 56.458 38.6665 54.5364 36.7272C51.1874 33.3576 51.1463 33.3026 51.1051 32.7111Z" fill="black"/>
<path d="M66.5139 31.0899C66.5688 30.9111 66.761 30.6223 66.9668 30.4297C67.2002 30.1959 67.4884 30.0859 67.8178 30.0859C68.161 30.0721 68.4217 30.1821 68.6825 30.4297C68.9021 30.6223 69.0943 30.9111 69.1492 31.0899C69.1904 31.2549 69.2041 32.6165 69.1355 36.8527L68.7511 37.1828C68.4904 37.4166 68.2159 37.5129 67.8315 37.5129C67.4472 37.5129 67.1727 37.4166 66.5276 36.8527L66.4864 34.1157C66.459 32.6165 66.4727 31.2549 66.5139 31.0899Z" fill="black"/>
<path d="M98.0167 30.3273C98.0991 30.1485 98.3049 29.9009 98.4696 29.7771C98.6206 29.6396 98.9775 29.5295 99.2383 29.5295C99.5677 29.5295 99.8422 29.6258 100.103 29.8734C100.309 30.0659 100.501 30.3548 100.556 30.5198C100.597 30.6986 100.611 32.0602 100.542 36.2964L100.172 36.6265C99.8971 36.8603 99.6226 36.9566 99.2383 36.9566C98.8128 36.9566 98.5932 36.8603 97.8657 36.1313V33.3806C97.8657 31.6339 97.9206 30.5198 98.0167 30.3273Z" fill="black"/>
<path d="M88.8796 37.0814C89.1404 36.9301 89.6071 36.71 89.909 36.6137C90.211 36.5175 90.8835 36.4625 91.4188 36.4762C92.0776 36.5037 92.6267 36.6275 93.1345 36.8613C93.5463 37.0539 94.1502 37.4665 94.4796 37.7828C94.7953 38.0992 95.207 38.6906 95.3992 39.0757C95.5913 39.4745 95.7698 40.0797 95.8247 40.4235C95.907 41.0425 95.907 41.0425 96.5384 41.1525C96.8953 41.2075 97.5129 41.4001 97.9247 41.5788C98.3227 41.7576 98.8992 42.1703 99.1874 42.4728C99.4894 42.7892 99.8737 43.3668 100.066 43.7519C100.258 44.1508 100.436 44.756 100.491 45.0998C100.56 45.705 100.587 45.7187 101.136 45.8012C101.452 45.8425 102.056 46.0351 102.468 46.2139C102.88 46.4064 103.497 46.8328 103.84 47.1629C104.17 47.5067 104.582 48.0844 104.746 48.4695C104.925 48.8408 105.089 49.4322 105.144 49.7761C105.227 50.3812 105.24 50.395 105.803 50.4775C106.119 50.5188 106.723 50.7113 107.134 50.8901C107.546 51.0827 108.164 51.509 108.507 51.8391C108.836 52.183 109.262 52.8019 109.454 53.2145C109.729 53.8197 109.797 54.191 109.811 55.0713C109.811 56.0478 109.756 56.2816 109.372 57.0656C109.056 57.7257 108.548 58.3447 106.064 60.8478L106.489 61.8106C106.709 62.3332 107.038 63.3373 107.203 64.0112C107.381 64.6851 107.56 65.7717 107.711 67.5872L112.83 72.7448C115.644 75.5781 118.019 78.04 118.101 78.2051C118.183 78.3839 118.252 78.6727 118.252 78.8652C118.252 79.0578 118.074 79.4154 117.854 79.6492C117.525 80.0205 117.346 80.1031 116.893 80.1031C116.345 80.1031 116.262 80.0207 113.839 77.6061L113.832 77.5999C112.446 76.2108 111.266 75.083 111.183 75.083C111.101 75.083 110.689 75.4406 110.25 75.8807C109.55 76.5821 109.399 76.6646 108.905 76.6646C108.452 76.6646 108.274 76.5821 107.944 76.2108C107.725 75.9769 107.546 75.6194 107.546 75.4268C107.546 75.2342 107.615 74.9454 107.697 74.7666C107.78 74.6016 108.164 74.1339 109.262 73.0199L107.821 71.5758C107.025 70.778 106.311 70.1316 106.229 70.1316C106.16 70.1316 103.58 72.6485 94.9188 81.3409L97.9384 84.3667L98.6521 83.6515C99.0502 83.2527 99.5305 82.8813 99.7227 82.8126C99.9149 82.73 100.217 82.7025 100.409 82.73C100.601 82.7575 100.931 82.9501 101.136 83.1702C101.425 83.4452 101.521 83.6653 101.507 84.0504C101.507 84.4905 101.383 84.6968 99.8737 86.2923L105.35 91.7938C108.493 94.9434 110.868 97.4465 110.909 97.6391C110.964 97.8316 110.978 98.1342 110.936 98.3268C110.895 98.5193 110.689 98.8357 110.483 99.042C110.195 99.3446 109.989 99.4271 109.55 99.4271C108.987 99.4271 108.974 99.4133 90.1861 80.6146L90.1835 80.612H88.5365C87.1777 80.612 86.6835 80.5432 85.6953 80.2544C85.0228 80.0618 84.1992 79.7455 83.8424 79.5667C83.4718 79.3879 82.3326 78.6727 81.3032 77.985C79.6287 76.8709 79.3679 76.7472 79.1071 76.8847C78.9287 76.9672 73.7542 82.0699 67.6052 88.2315C57.3935 98.4506 56.3778 99.4271 55.9798 99.4271C55.6504 99.4271 55.4033 99.3033 55.0464 98.9457C54.6896 98.5881 54.5661 98.3405 54.5661 98.0104C54.5661 97.7766 54.6621 97.419 54.7857 97.2265C54.9092 97.0339 58.5053 93.3754 70.5562 81.2721L60.8111 71.507L55.5268 76.8022C52.3974 79.9243 50.0778 82.1524 49.8308 82.2349C49.6112 82.3174 49.268 82.3449 49.0759 82.3037C48.8837 82.2487 48.5955 82.0836 48.4171 81.9186C48.2524 81.7535 48.0739 81.4647 48.0328 81.2721C47.9916 81.0796 48.0328 80.7357 48.1151 80.5157C48.2112 80.2681 51.3269 77.036 63.8307 64.5063L62.5131 63.1585C61.4699 62.0857 61.1405 61.6456 60.9072 61.0266C60.7013 60.4765 60.6052 59.9263 60.6052 59.2662C60.6052 58.6472 60.7013 58.0421 60.866 57.5882C61.017 57.1893 61.3739 56.5842 61.6758 56.2403C61.9641 55.8965 62.5405 55.4426 63.7209 54.7962L63.4464 54.1085C63.2405 53.5721 63.1993 53.187 63.2405 52.3205C63.2954 51.4815 63.3915 51.0552 63.666 50.5325C63.8582 50.1612 64.1601 49.6936 64.3386 49.501C64.517 49.3085 64.8738 48.9921 65.1346 48.7858C65.3954 48.5795 65.8895 48.3182 66.2327 48.2082C66.5758 48.0981 67.0699 47.9743 67.3307 47.9331C67.7836 47.8643 67.8111 47.823 67.8934 47.2041C67.9483 46.8328 68.1405 46.2414 68.3327 45.8563C68.5248 45.4849 68.9091 44.9348 69.2111 44.6459C69.4993 44.3434 70.0483 43.9582 70.4189 43.7657C70.8032 43.5731 71.4209 43.3668 72.4777 43.2431L72.5601 42.5554C72.615 42.184 72.7797 41.5926 72.9307 41.2488C73.0954 40.9049 73.4934 40.3548 73.8091 40.0247C74.1385 39.7083 74.7013 39.2682 75.0856 39.0619C75.6895 38.7456 75.9228 38.7043 77.1444 38.7043C78.3797 38.7043 78.5855 38.7456 79.2306 39.0894C79.6561 39.3095 80.6306 40.121 83.1836 42.6104L85.7914 39.9972C87.2188 38.5668 88.6188 37.2464 88.8796 37.0814Z" fill="black"/>
<path d="M62.8013 69.5125L64.2699 68.0408V68.0271C65.0797 67.2156 65.7797 66.5554 65.8209 66.5554C65.862 66.5554 68.0718 68.7423 75.5659 76.2518L72.5463 79.2776L62.8013 69.5125Z" fill="#91DEF5"/>
<path d="M95.1249 71.5343C95.7974 70.9979 98.0621 68.8661 100.135 66.7755C102.207 64.685 103.964 62.9795 104.033 62.9795C104.101 62.9795 104.266 63.4334 104.417 63.9698C104.554 64.5199 104.746 65.5102 105.007 67.3807L93.0112 79.4152L92.2151 78.645C91.7759 78.2186 91.268 77.8198 91.0759 77.7648C90.8837 77.7097 90.2661 77.7373 89.7033 77.806C89.0994 77.8885 88.2484 77.9023 87.6445 77.8335C87.0818 77.7648 86.272 77.586 85.8602 77.4347C85.4484 77.2696 84.7759 76.967 84.3916 76.7332C83.9935 76.5132 83.6916 76.2518 83.7328 76.1831C83.7739 76.1006 83.9935 76.0455 84.2132 76.0455C84.4328 76.0455 85.2288 75.9218 85.9563 75.7705C86.6975 75.6329 87.7955 75.3441 88.3994 75.1516C89.0033 74.9452 89.9916 74.5601 90.5955 74.2988C91.1994 74.0237 92.1876 73.5011 92.7915 73.1435C93.3955 72.7859 94.4523 72.0707 95.1249 71.5343Z" fill="#FFBF9E"/>
<path d="M63.5839 58.3033C63.7212 58.0833 64.0506 57.7669 64.3114 57.6157C64.5721 57.4644 64.9565 57.3406 65.1761 57.3406C65.3819 57.3406 65.78 57.4644 66.0682 57.6019C66.3427 57.7532 67.2898 58.6059 68.1682 59.4999C69.1702 60.5177 69.829 61.3017 69.9251 61.6042C70.0486 61.9481 70.0486 62.2369 69.9525 62.6358C69.8702 62.9383 69.678 63.3235 69.4996 63.4747C69.3211 63.6398 69.0466 63.8461 68.8682 63.9286C68.7035 64.0111 68.3466 64.0799 68.0859 64.0799C67.8251 64.0799 67.4682 64.0111 67.2898 63.9286C67.1251 63.8461 66.2604 63.0484 65.3682 62.1681C64.4761 61.2879 63.6525 60.4077 63.5427 60.2014C63.4329 59.9813 63.3506 59.5687 63.3506 59.2661C63.3506 58.9635 63.4604 58.5372 63.5839 58.3033Z" fill="#FFBF9E"/>
<path d="M66.5894 51.124C66.7404 50.9864 67.0286 50.8214 67.2619 50.7526C67.4953 50.6839 67.8521 50.6563 68.0854 50.6976C68.3188 50.7389 68.6756 50.8764 68.909 51.0139C69.1423 51.1515 70.4737 52.4306 71.8737 53.861C73.9462 55.9515 74.4678 56.5567 74.5913 56.9968C74.6874 57.3819 74.7011 57.6983 74.605 58.0284C74.5227 58.2897 74.358 58.6198 74.2207 58.7711C74.0972 58.9086 73.8227 59.1011 73.6031 59.2112C73.3972 59.3212 73.0129 59.4037 72.7521 59.4037C72.4913 59.4037 72.1344 59.335 71.9697 59.2524C71.7913 59.1699 70.4599 57.9183 69.0051 56.4604C67.5502 55.0163 66.26 53.6684 66.1502 53.4621C66.0404 53.2421 65.958 52.8569 65.958 52.5956C65.958 52.3343 66.0404 51.9492 66.1502 51.7429C66.26 51.5228 66.4521 51.2478 66.5894 51.124Z" fill="#FFBF9E"/>
<path d="M71.1326 46.5714C71.3385 46.3651 71.7228 46.1451 71.9836 46.0763C72.2444 46.0213 72.6699 46.0213 72.9444 46.0901C73.3424 46.1726 73.9738 46.7227 76.2934 49.0471C78.5718 51.3302 79.1757 52.0042 79.2581 52.3893C79.313 52.6506 79.313 53.0907 79.2581 53.352C79.1895 53.6409 78.9561 54.0122 78.6679 54.2873C78.2561 54.6449 78.064 54.7274 77.5561 54.7274C77.213 54.7274 76.7738 54.6449 76.5542 54.5349C76.3483 54.4248 74.962 53.1045 73.4797 51.6053C71.613 49.721 70.7483 48.7583 70.6797 48.4695C70.6385 48.2356 70.6248 47.8093 70.666 47.5067C70.7209 47.1629 70.8993 46.8053 71.1326 46.5714Z" fill="#FFBF9E"/>
<path d="M75.3052 43.2567C75.319 42.5139 75.3601 42.4177 75.8542 41.9088C76.3895 41.3586 76.417 41.3586 78.0366 41.4549L83.9385 47.369V48.1667C83.9385 48.8544 83.8836 49.0057 83.4993 49.4458C83.2248 49.7347 82.8542 49.9685 82.566 50.0372C82.3052 50.0923 81.866 50.0923 81.6052 50.0372C81.2209 49.941 80.5346 49.322 75.2915 44.0681L75.3052 43.2567Z" fill="#FFBF9E"/>
<path d="M87.672 41.9775C89.0583 40.6022 90.3348 39.4056 90.5269 39.3368C90.7191 39.2681 91.0622 39.1993 91.2818 39.1993C91.5014 39.1855 91.8995 39.3093 92.1465 39.4606C92.3799 39.6119 92.7093 39.942 92.8602 40.1896C93.0112 40.4234 93.1348 40.836 93.1348 41.0836C93.1348 41.3174 93.0524 41.6887 92.9426 41.9088C92.8328 42.1151 92.023 42.9953 91.1446 43.8618C90.2661 44.7283 89.4563 45.6085 89.3465 45.8286C89.2367 46.0349 89.1544 46.3512 89.1544 46.5438C89.1544 46.7501 89.3465 47.0802 89.6348 47.369C89.923 47.6578 90.2524 47.8504 90.4583 47.8504C90.6505 47.8504 90.9661 47.7679 91.1857 47.6578C91.3916 47.5478 92.2701 46.7363 93.1348 45.8561C93.9995 44.9759 94.8779 44.1644 95.0975 44.0544C95.3034 43.9443 95.674 43.8618 95.921 43.8618C96.1544 43.8618 96.5661 43.9856 96.8132 44.1369C97.0465 44.2882 97.3759 44.6183 97.5269 44.8658C97.6779 45.0996 97.8014 45.471 97.8014 45.6911C97.8014 45.8974 97.7328 46.2274 97.6641 46.4475C97.5818 46.6538 96.374 47.9604 94.9877 49.3633C93.2995 51.055 92.4073 52.0453 92.3387 52.3204C92.2838 52.5542 92.2426 52.8568 92.2701 53.008C92.2838 53.1593 92.4759 53.4619 92.6818 53.6682C92.9838 53.9571 93.1897 54.0533 93.6151 54.0396C94.1367 54.0396 94.274 53.9295 96.772 51.4401C98.1994 50.0097 99.5445 48.7719 99.7641 48.6894C99.97 48.6068 100.327 48.5381 100.546 48.5381C100.766 48.5381 101.096 48.6068 101.274 48.6894C101.439 48.7719 101.713 48.9782 101.892 49.1432C102.056 49.2945 102.262 49.6521 102.345 49.9135C102.427 50.1748 102.454 50.6149 102.399 50.8762C102.331 51.2613 101.782 51.894 99.6681 54.0396C97.9661 55.7588 96.9779 56.8591 96.923 57.1067C96.8818 57.313 96.8955 57.6293 96.9779 57.8219C97.0602 58.0144 97.2524 58.2895 97.4308 58.4408C97.6321 58.6242 97.9158 58.7158 98.2818 58.7158C98.8034 58.7021 98.9406 58.6058 101.439 56.1026C102.866 54.686 104.211 53.4482 104.431 53.3656C104.637 53.2831 105.007 53.2143 105.254 53.2143C105.488 53.2143 105.899 53.3381 106.146 53.4894C106.38 53.6407 106.682 53.902 106.792 54.0808C106.901 54.2459 107.039 54.6035 107.08 54.8648C107.135 55.1811 107.094 55.5112 106.943 55.8276C106.819 56.1164 104.143 58.8946 100.313 62.7044C96.0308 66.9818 93.5191 69.3612 92.7916 69.8839C92.1877 70.3102 91.0759 70.9842 90.321 71.3693C89.5661 71.7544 88.3583 72.2495 87.6446 72.4833C86.9309 72.7171 85.874 72.9922 85.3113 73.1023C84.7485 73.226 83.3348 73.3636 82.1956 73.4461C80.727 73.5286 79.8348 73.6524 79.2446 73.8587C78.7642 74.01 78.2289 74.2301 78.0368 74.3538C77.6937 74.5602 77.6799 74.5464 69.7329 66.583L70.2819 66.3079C70.5839 66.1566 71.0917 65.7715 71.4211 65.4414C71.7505 65.1113 72.1349 64.5887 72.2721 64.2861C72.4231 63.9835 72.6015 63.3921 72.8349 62.223L73.48 62.1405C73.8368 62.0855 74.4407 61.893 74.8113 61.7004C75.1956 61.5079 75.6486 61.2053 75.8407 61.0265C76.0329 60.8477 76.3486 60.4901 76.5544 60.2288C76.7603 59.9674 77.0211 59.4723 77.1309 59.1285C77.2407 58.7846 77.3642 58.2895 77.4054 58.0282C77.474 57.5743 77.5152 57.5468 78.1329 57.4643C78.5035 57.4092 79.1074 57.2167 79.478 57.0241C79.8623 56.8316 80.425 56.4052 80.7544 56.0889C81.0701 55.7588 81.4681 55.2086 81.6329 54.8648C81.7838 54.521 81.9485 53.9433 82.0858 52.8705L82.7721 52.788C83.1426 52.733 83.7328 52.5679 84.076 52.4166C84.4191 52.2516 84.9681 51.8527 85.2975 51.5364C85.6132 51.2063 86.0524 50.6424 86.2583 50.2573C86.574 49.6521 86.6152 49.4183 86.6152 48.1942C86.6152 47.0114 86.574 46.7363 86.2858 46.1999C86.1073 45.8561 85.7779 45.3747 85.572 45.1409C85.3524 44.8933 85.174 44.6458 85.174 44.5908C85.174 44.522 86.2995 43.3529 87.672 41.9775Z" fill="#FFD4BE"/>
<path d="M49.5214 47.3936C49.6449 47.2148 49.8782 46.981 50.0292 46.8847C50.2488 46.7472 51.0449 46.7059 55.89 46.6921L56.3017 47.1048C56.6174 47.4211 56.7135 47.6411 56.7135 48.0675C56.7135 48.4526 56.6174 48.7277 56.0547 49.3741L53.2547 49.4154C51.1959 49.4429 50.3586 49.4016 50.0704 49.2778C49.8508 49.1816 49.59 48.934 49.4939 48.7139C49.3841 48.5076 49.3018 48.205 49.3018 48.0263C49.3155 47.8612 49.4116 47.5724 49.5214 47.3936Z" fill="black"/>
<path d="M109.831 47.5137C109.831 47.1011 109.941 46.8535 110.229 46.551L110.614 46.1521H113.373C115.445 46.1521 116.227 46.1934 116.502 46.3447C116.722 46.4409 116.969 46.6885 117.051 46.8948C117.147 47.0874 117.229 47.3762 117.229 47.5275C117.229 47.6788 117.147 47.9676 117.037 48.1739C116.941 48.394 116.68 48.6415 116.461 48.7378C116.173 48.8616 115.335 48.9028 110.476 48.8341L110.147 48.449C109.914 48.1877 109.818 47.9263 109.831 47.5137Z" fill="black"/>
<path d="M94.9189 81.3409L100.505 75.7431V75.7294C103.593 72.6485 106.16 70.1316 106.242 70.1316C106.311 70.1316 107.025 70.778 109.262 73.0199L108.562 73.7351C108.164 74.1339 107.78 74.6016 107.697 74.7666C107.615 74.9454 107.546 75.2205 107.546 75.3855C107.546 75.5643 107.629 75.8256 107.738 75.9769C107.931 76.2383 107.862 76.3345 106.75 77.4623C105.666 78.5764 105.529 78.6727 105.254 78.5351C105.076 78.4526 104.719 78.3838 104.458 78.3838C104.115 78.3838 103.868 78.4939 103.635 78.7277C103.442 78.9202 103.25 79.2366 103.209 79.4429C103.154 79.6767 103.209 79.993 103.539 80.6532L102.331 81.891C101.384 82.8538 101.068 83.1014 100.931 82.9776C100.835 82.8951 100.601 82.785 100.409 82.7438C100.217 82.7025 99.915 82.73 99.7228 82.7988C99.5307 82.8813 99.0503 83.2527 97.9385 84.3667L94.9189 81.3409Z" fill="#F6838D"/>
<path d="M49.8857 82.4411L55.3485 76.9808L60.8112 71.5068L70.5562 81.272L62.9386 88.9053C55.7877 96.071 55.3073 96.5111 55.17 96.2223C55.0877 96.0573 53.8661 92.8801 49.8857 82.4411Z" fill="#FFD4BE"/>
<path d="M109.152 76.6647C109.372 76.6234 109.866 76.2658 110.291 75.8395C110.703 75.4269 111.101 75.083 111.183 75.083C111.252 75.083 112.46 76.2246 116.399 80.1719L113.338 88.3141C111.65 92.7978 110.236 96.4976 110.209 96.5388C110.168 96.5801 107.834 94.2832 99.8735 86.2923L100.683 85.4258C101.37 84.7244 101.507 84.4906 101.507 84.0917C101.507 83.8304 101.425 83.4865 101.342 83.3353C101.177 83.0877 101.274 82.9501 103.497 80.7083L103.977 80.9146C104.266 81.0246 104.623 81.0796 104.856 81.0246C105.075 80.9696 105.405 80.7633 105.583 80.557C105.775 80.3232 105.899 79.9931 105.899 79.7318C105.899 79.4842 105.817 79.1541 105.707 79.0028C105.515 78.7415 105.583 78.6452 107.889 76.3208L108.342 76.5272C108.575 76.6372 108.946 76.7059 109.152 76.6647Z" fill="#FFBF9E"/>
<path d="M103.209 79.4566C103.25 79.2365 103.442 78.9202 103.634 78.7276C103.881 78.4663 104.114 78.3838 104.526 78.3838C104.952 78.3838 105.171 78.4801 105.487 78.7964C105.789 79.099 105.899 79.3328 105.899 79.6904C105.899 79.993 105.775 80.3093 105.583 80.5569C105.405 80.7632 105.075 80.9695 104.856 81.0245C104.622 81.0795 104.279 81.0245 104.005 80.9145C103.758 80.8044 103.469 80.5294 103.346 80.2818C103.209 80.0067 103.154 79.6766 103.209 79.4566Z" fill="black"/>
<path d="M75.1824 110.774C75.0994 110.486 74.9828 110.231 74.8325 110.009C74.6823 109.784 74.4985 109.594 74.2811 109.44C74.0676 109.282 73.8225 109.161 73.5457 109.078C73.273 108.995 72.9705 108.954 72.6385 108.954C72.0178 108.954 71.4722 109.108 71.0018 109.416C70.5353 109.725 70.1716 110.173 69.9107 110.762C69.6497 111.347 69.5193 112.063 69.5193 112.909C69.5193 113.755 69.6478 114.475 69.9047 115.068C70.1617 115.661 70.5254 116.113 70.9958 116.425C71.4663 116.734 72.0217 116.888 72.6622 116.888C73.2433 116.888 73.7394 116.785 74.1506 116.58C74.5657 116.37 74.882 116.076 75.0994 115.696C75.3208 115.317 75.4315 114.868 75.4315 114.35L75.9533 114.427H72.8223V112.494H77.9043V114.024C77.9043 115.091 77.6789 116.008 77.2283 116.775C76.7776 117.538 76.1569 118.127 75.3662 118.542C74.5756 118.954 73.6703 119.159 72.6503 119.159C71.5118 119.159 70.5116 118.908 69.6497 118.406C68.7879 117.9 68.1159 117.183 67.6336 116.254C67.1552 115.321 66.916 114.214 66.916 112.933C66.916 111.948 67.0583 111.071 67.343 110.3C67.6316 109.525 68.0348 108.869 68.5527 108.331C69.0706 107.793 69.6735 107.384 70.3613 107.104C71.0492 106.823 71.7944 106.683 72.5969 106.683C73.2848 106.683 73.9253 106.783 74.5183 106.985C75.1113 107.183 75.637 107.463 76.0956 107.827C76.5582 108.191 76.9357 108.624 77.2283 109.126C77.5208 109.624 77.7086 110.173 77.7916 110.774H75.1824ZM79.833 118.993V106.849H88.0164V108.966H82.4007V111.859H87.5953V113.976H82.4007V116.876H88.0401V118.993H79.833ZM89.5952 108.966V106.849H99.5694V108.966H95.8513V118.993H93.3133V108.966H89.5952ZM50.7976 126.341C50.7502 125.863 50.5466 125.491 50.1868 125.226C49.8271 124.962 49.3388 124.829 48.7221 124.829C48.3031 124.829 47.9492 124.888 47.6607 125.007C47.3721 125.122 47.1507 125.282 46.9965 125.487C46.8463 125.693 46.7712 125.926 46.7712 126.187C46.7632 126.405 46.8087 126.594 46.9075 126.756C47.0103 126.919 47.1507 127.059 47.3286 127.177C47.5065 127.292 47.712 127.393 47.9453 127.48C48.1785 127.563 48.4276 127.634 48.6925 127.693L49.7836 127.954C50.3133 128.073 50.7996 128.231 51.2424 128.429C51.6851 128.626 52.0686 128.869 52.3928 129.158C52.7169 129.447 52.968 129.787 53.1459 130.178C53.3277 130.569 53.4206 131.018 53.4246 131.524C53.4206 132.267 53.2309 132.912 52.8553 133.457C52.4837 133.999 51.946 134.42 51.2424 134.72C50.5426 135.017 49.6986 135.165 48.7103 135.165C47.7298 135.165 46.8759 135.015 46.1485 134.714C45.4251 134.414 44.8597 133.969 44.4525 133.38C44.0493 132.787 43.8378 132.054 43.818 131.18H46.3027C46.3304 131.587 46.447 131.927 46.6526 132.2C46.8621 132.469 47.1408 132.673 47.4887 132.811C47.8405 132.945 48.2378 133.013 48.6806 133.013C49.1155 133.013 49.493 132.949 49.8132 132.823C50.1374 132.696 50.3884 132.52 50.5663 132.295C50.7442 132.07 50.8332 131.811 50.8332 131.518C50.8332 131.245 50.7521 131.016 50.5901 130.83C50.4319 130.645 50.1987 130.486 49.8903 130.356C49.5859 130.225 49.2123 130.107 48.7696 130L47.4472 129.668C46.4233 129.419 45.6148 129.03 45.0218 128.5C44.4288 127.97 44.1343 127.257 44.1382 126.359C44.1343 125.624 44.33 124.981 44.7253 124.432C45.1246 123.882 45.6721 123.453 46.3679 123.145C47.0637 122.837 47.8544 122.683 48.7399 122.683C49.6413 122.683 50.428 122.837 51.1 123.145C51.7761 123.453 52.3018 123.882 52.6774 124.432C53.053 124.981 53.2467 125.618 53.2585 126.341H50.7976ZM62.6531 122.849H65.2208V130.735C65.2208 131.621 65.0093 132.396 64.5863 133.06C64.1672 133.724 63.5802 134.242 62.8251 134.614C62.07 134.981 61.1904 135.165 60.1862 135.165C59.1781 135.165 58.2966 134.981 57.5415 134.614C56.7864 134.242 56.1993 133.724 55.7803 133.06C55.3612 132.396 55.1517 131.621 55.1517 130.735V122.849H57.7194V130.516C57.7194 130.979 57.8202 131.39 58.0218 131.749C58.2274 132.109 58.516 132.392 58.8876 132.597C59.2592 132.803 59.6921 132.906 60.1862 132.906C60.6844 132.906 61.1172 132.803 61.4849 132.597C61.8565 132.392 62.1431 132.109 62.3448 131.749C62.5503 131.39 62.6531 130.979 62.6531 130.516V122.849ZM67.3333 134.993V122.849H72.1248C73.0459 122.849 73.8306 123.024 74.479 123.376C75.1273 123.724 75.6215 124.209 75.9615 124.829C76.3054 125.446 76.4774 126.157 76.4774 126.964C76.4774 127.77 76.3034 128.482 75.9555 129.099C75.6076 129.715 75.1036 130.196 74.4434 130.54C73.7871 130.884 72.9925 131.056 72.0595 131.056H69.0056V128.998H71.6444C72.1386 128.998 72.5458 128.913 72.866 128.743C73.1902 128.569 73.4313 128.33 73.5895 128.025C73.7516 127.717 73.8326 127.363 73.8326 126.964C73.8326 126.561 73.7516 126.209 73.5895 125.908C73.4313 125.604 73.1902 125.369 72.866 125.203C72.5418 125.033 72.1307 124.948 71.6326 124.948H69.901V134.993H67.3333ZM78.1452 134.993V122.849H82.9366C83.8577 122.849 84.6425 123.024 85.2908 123.376C85.9391 123.724 86.4333 124.209 86.7733 124.829C87.1172 125.446 87.2892 126.157 87.2892 126.964C87.2892 127.77 87.1153 128.482 86.7674 129.099C86.4195 129.715 85.9154 130.196 85.2552 130.54C84.599 130.884 83.8043 131.056 82.8714 131.056H79.8174V128.998H82.4563C82.9504 128.998 83.3576 128.913 83.6778 128.743C84.002 128.569 84.2432 128.33 84.4013 128.025C84.5634 127.717 84.6444 127.363 84.6444 126.964C84.6444 126.561 84.5634 126.209 84.4013 125.908C84.2432 125.604 84.002 125.369 83.6778 125.203C83.3537 125.033 82.9425 124.948 82.4444 124.948H80.7129V134.993H78.1452ZM100.117 128.921C100.117 130.245 99.8662 131.372 99.3641 132.301C98.866 133.23 98.186 133.94 97.3242 134.43C96.4663 134.916 95.5017 135.159 94.4304 135.159C93.3511 135.159 92.3826 134.914 91.5247 134.424C90.6668 133.934 89.9888 133.224 89.4907 132.295C88.9926 131.366 88.7435 130.241 88.7435 128.921C88.7435 127.597 88.9926 126.47 89.4907 125.541C89.9888 124.612 90.6668 123.904 91.5247 123.418C92.3826 122.928 93.3511 122.683 94.4304 122.683C95.5017 122.683 96.4663 122.928 97.3242 123.418C98.186 123.904 98.866 124.612 99.3641 125.541C99.8662 126.47 100.117 127.597 100.117 128.921ZM97.514 128.921C97.514 128.063 97.3855 127.34 97.1285 126.75C96.8755 126.161 96.5177 125.715 96.0552 125.41C95.5926 125.106 95.051 124.954 94.4304 124.954C93.8097 124.954 93.2681 125.106 92.8056 125.41C92.343 125.715 91.9833 126.161 91.7263 126.75C91.4733 127.34 91.3468 128.063 91.3468 128.921C91.3468 129.779 91.4733 130.502 91.7263 131.091C91.9833 131.68 92.343 132.127 92.8056 132.431C93.2681 132.736 93.8097 132.888 94.4304 132.888C95.051 132.888 95.5926 132.736 96.0552 132.431C96.5177 132.127 96.8755 131.68 97.1285 131.091C97.3855 130.502 97.514 129.779 97.514 128.921ZM102.019 134.993V122.849H106.811C107.728 122.849 108.511 123.013 109.159 123.341C109.811 123.665 110.307 124.125 110.647 124.722C110.991 125.315 111.163 126.013 111.163 126.816C111.163 127.622 110.989 128.316 110.641 128.897C110.294 129.474 109.79 129.917 109.129 130.225C108.473 130.534 107.678 130.688 106.745 130.688H103.537V128.624H106.33C106.821 128.624 107.228 128.557 107.552 128.423C107.876 128.288 108.117 128.087 108.275 127.818C108.437 127.549 108.519 127.215 108.519 126.816C108.519 126.412 108.437 126.073 108.275 125.796C108.117 125.519 107.874 125.31 107.546 125.167C107.222 125.021 106.813 124.948 106.318 124.948H104.587V134.993H102.019ZM108.578 129.466L111.596 134.993H108.762L105.809 129.466H108.578ZM112.515 124.966V122.849H122.49V124.966H118.771V134.993H116.233V124.966H112.515Z" fill="white"/>
</svg>
