<svg width="1518" height="791" viewBox="0 0 1518 791" fill="none" xmlns="http://www.w3.org/2000/svg">
<path d="M382.553 109.594C431.362 113.369 476.364 129.169 514.878 153.865C479.632 114.77 434.695 89.8947 384.378 86.0027C334.061 82.1106 285.834 99.7794 244.995 132.989C286.848 114.51 333.744 105.818 382.553 109.594Z" fill="#8CC341"/>
<circle cx="387.204" cy="49.4975" r="23.8971" transform="rotate(4.42302 387.204 49.4975)" fill="#8CC341"/>
<path d="M338.374 680.693C387.183 684.469 434.079 675.777 475.932 657.298C435.094 690.508 386.866 708.176 336.549 704.284C286.232 700.392 241.295 675.517 206.049 636.422C244.563 661.118 289.564 676.918 338.374 680.693Z" fill="#66336D"/>
<circle cx="333.725" cy="740.79" r="23.8971" transform="rotate(4.42302 333.725 740.79)" fill="#66336D"/>
<path d="M124.21 233.242C96.5361 273.624 80.6155 318.583 75.692 364.069C67.3509 312.096 76.163 261.496 104.692 219.866C133.221 178.236 177.232 151.757 228.712 140.78C188.069 161.787 151.884 192.859 124.21 233.242Z" fill="#66336D"/>
<circle cx="74.615" cy="197.6" r="23.8971" transform="rotate(-55.577 74.615 197.6)" fill="#66336D"/>
<path d="M596.713 557.045C569.039 597.428 532.855 628.5 492.211 649.506C543.691 638.53 587.702 612.051 616.231 570.421C644.761 528.791 653.573 478.191 645.232 426.218C640.308 471.704 624.387 516.663 596.713 557.045Z" fill="#90C551"/>
<circle cx="646.556" cy="589.552" r="23.8971" transform="rotate(-55.577 646.556 589.552)" fill="#90C551"/>
<path d="M618.802 271.496C639.937 315.654 648.754 362.527 646.625 408.228C662.859 358.157 661.933 306.803 640.145 261.281C618.357 215.759 578.942 182.828 529.762 164.065C566.692 191.072 597.667 227.339 618.802 271.496Z" fill="#6A3572"/>
<circle cx="673.297" cy="243.907" r="23.8971" transform="rotate(64.423 673.297 243.907)" fill="#6A3572"/>
<path d="M102.129 518.79C123.264 562.947 154.24 599.215 191.17 626.221C141.99 607.459 102.575 574.527 80.7866 529.005C58.9986 483.483 58.0727 432.129 74.3068 382.058C72.177 427.759 80.9944 474.632 102.129 518.79Z" fill="#90C551"/>
<circle cx="47.8807" cy="543.247" r="23.8971" transform="rotate(64.423 47.8807 543.247)" fill="#90C551"/>
<path d="M457.143 483.702C457.143 542.792 409.241 590.693 350.151 590.693C291.061 590.693 243.159 542.792 243.159 483.702C243.159 424.612 291.061 376.71 350.151 376.71C409.241 376.71 457.143 424.612 457.143 483.702ZM268.114 483.702C268.114 529.009 304.843 565.738 350.151 565.738C395.458 565.738 432.187 529.009 432.187 483.702C432.187 438.394 395.458 401.665 350.151 401.665C304.843 401.665 268.114 438.394 268.114 483.702Z" fill="#66336D"/>
<circle cx="350.151" cy="483.701" r="17.7821" fill="#66336D"/>
<path fill-rule="evenodd" clip-rule="evenodd" d="M258.96 544.915C234.307 516.735 219.357 479.771 219.357 439.296C219.357 350.927 290.626 279.289 378.542 279.289C395.421 279.289 411.687 281.93 426.952 286.823C400.818 266.557 368.005 254.494 332.374 254.494C247.061 254.494 177.9 323.654 177.9 408.967C177.9 467.708 210.688 518.792 258.96 544.915Z" fill="#F10A00"/>
<ellipse cx="426.95" cy="226.981" rx="29.1068" ry="35.2831" transform="rotate(18 426.95 226.981)" fill="#FDD09A"/>
<path d="M473.774 314.743C495.648 314.743 516.155 308.892 533.815 298.668C514.461 323.913 483.995 340.191 449.727 340.191C436.3 340.191 423.455 337.691 411.635 333.132C408.56 331.946 406.487 329.036 406.487 325.741V325.741C406.487 321.24 406.931 316.844 407.776 312.592C409.382 304.516 418.671 301.693 426.229 304.958C440.808 311.254 456.884 314.743 473.774 314.743Z" fill="#1366C1"/>
<path d="M404.655 304.413C405.496 301.641 403.844 298.638 400.963 298.335C398.516 298.078 396.033 297.946 393.518 297.946C354.639 297.946 323.122 329.464 323.122 368.342C323.122 372.283 323.446 376.148 324.068 379.913C332.418 377.821 341.157 376.71 350.155 376.71C362.384 376.71 374.134 378.762 385.08 382.54C386.536 367.622 392.649 354.07 401.945 343.354C402.96 342.184 403.373 340.606 403.063 339.089C402.123 334.502 401.63 329.754 401.63 324.89C401.63 317.767 402.688 310.892 404.655 304.413Z" fill="#1366C1"/>
<path d="M488.176 531.937C484.883 532.302 481.537 532.489 478.147 532.489C472.606 532.489 467.181 531.989 461.917 531.031C455.83 556.607 444.032 579.208 428.322 596.633C453.955 584.339 475.154 561.248 488.176 531.937Z" fill="#F10A00"/>
<path fill-rule="evenodd" clip-rule="evenodd" d="M454.544 460.16C459.269 460.962 462.708 462.016 464.488 463.429C466.438 473.758 466.535 480.146 466.535 491.199C466.535 505.026 464.922 518.393 461.914 531.033C467.179 531.991 472.603 532.491 478.144 532.491C481.535 532.491 484.881 532.304 488.174 531.939C497.133 511.774 502.223 488.664 502.223 464.102C502.223 461.196 502.151 458.312 502.011 455.449C502.15 454.505 502.223 453.539 502.223 452.557C502.223 450.564 501.926 448.64 501.374 446.828C501.335 446.434 501.295 446.041 501.253 445.648L501.018 445.769C490.138 423.714 445.885 410.791 424.208 406.484C439.096 420.766 449.862 439.313 454.544 460.16ZM428.32 596.634C435.732 588.413 442.273 579.04 447.755 568.745C442.273 579.04 435.732 588.413 428.32 596.634C428.32 596.634 428.32 596.634 428.32 596.634Z" fill="#1366C1"/>
<path d="M763.617 213.735V203.313C763.617 172.584 770.386 149.114 783.925 132.903C797.553 116.692 816.258 108.587 840.04 108.587C861.506 108.587 877.85 114.02 889.073 124.887C900.296 135.664 905.907 149.871 905.907 167.507V173.118H871.303V169.244C871.303 158.644 868.587 150.45 863.153 144.66C857.72 138.871 849.615 135.976 838.837 135.976C826.991 135.976 817.772 140.919 811.181 150.806C804.679 160.604 801.427 175.39 801.427 195.163V222.419C801.427 241.747 804.946 256.578 811.982 266.91C819.108 277.153 829.084 282.274 841.91 282.274C848.323 282.274 853.89 281.428 858.611 279.736C863.421 278.044 867.83 275.416 871.838 271.853V231.638H839.238V206.253H906.308V283.477C902.211 288.554 894.729 293.987 883.862 299.777C872.996 305.566 858.878 308.461 841.509 308.461C817.371 308.461 798.355 300.356 784.46 284.145C770.565 267.934 763.617 244.464 763.617 213.735ZM928.887 305.789V111.259H997.962C1016.22 111.259 1030.43 116.737 1040.58 127.692C1050.74 138.559 1055.81 152.81 1055.81 170.446C1055.81 188.439 1050.51 203.135 1039.91 214.536C1029.31 225.848 1015.2 231.504 997.561 231.504H965.362V305.789H928.887ZM965.362 206.787H990.346C1000.95 206.787 1008.38 203.581 1012.66 197.168C1016.93 190.665 1019.07 182.382 1019.07 172.317C1019.07 162.252 1016.93 154.057 1012.66 147.733C1008.38 141.32 1000.95 138.114 990.346 138.114H965.362V206.787ZM1023.61 305.789L984.601 219.48L1017.6 210.795L1063.56 305.789H1023.61ZM1064.23 305.789L1124.22 111.259H1166.44L1225.36 305.789H1189.55L1148.67 164.167C1147.6 160.515 1146.71 157.353 1146 154.681C1145.37 151.92 1144.71 149.337 1143.99 146.932H1143.59C1142.97 149.337 1142.26 151.875 1141.45 154.547C1140.74 157.219 1139.9 160.381 1138.92 164.033L1099.5 305.789H1064.23ZM1095.23 261.566L1100.57 236.715H1187.95L1193.69 261.566H1095.23ZM1226.96 213.735V203.313C1226.96 169.734 1233.95 145.551 1247.94 130.765C1261.92 115.98 1280.05 108.587 1302.32 108.587C1323.96 108.587 1340.66 113.976 1352.42 124.753C1364.18 135.531 1370.05 151.563 1370.05 172.851V182.337H1335.18V169.912C1335.18 158.422 1332.47 149.693 1327.03 143.725C1321.69 137.757 1313.63 134.774 1302.85 134.774C1291 134.774 1281.83 139.583 1275.33 149.203C1268.91 158.734 1265.71 173.697 1265.71 194.095V223.087C1265.71 243.395 1269.05 258.404 1275.73 268.112C1282.41 277.821 1291.63 282.675 1303.38 282.675C1313.89 282.675 1321.82 279.691 1327.17 273.724C1332.51 267.667 1335.18 258.092 1335.18 244.998V235.112H1370.05V246.869C1370.14 266.108 1364.31 281.161 1352.55 292.028C1340.88 302.894 1324.05 308.328 1302.05 308.328C1278.44 308.328 1260.01 300.801 1246.74 285.748C1233.55 270.695 1226.96 246.691 1226.96 213.735ZM1391.43 305.789V111.259H1507.13V140.786H1426.57V193.427H1494.98V219.881H1426.57V277.064H1508.87V305.789H1391.43Z" fill="#71227F"/>
<path d="M764.419 461.853V454.475H776.013V461.853C776.013 472.886 778.929 481.107 784.761 486.518C790.664 491.858 798.85 494.528 809.32 494.528C819.86 494.528 827.906 491.858 833.457 486.518C839.079 481.107 841.889 473.94 841.889 465.015C841.889 456.583 839.535 449.978 834.827 445.2C830.119 440.351 820.985 435.292 807.423 430.022C794.072 424.822 784.024 419.306 777.278 413.474C770.602 407.571 767.265 398.296 767.265 385.648C767.265 374.405 770.883 365.165 778.121 357.927C785.429 350.689 795.688 347.071 808.898 347.071C821.617 347.071 831.771 350.654 839.36 357.822C846.949 364.919 850.743 375.072 850.743 388.283V393.553H839.149V388.283C839.149 378.656 836.549 371.102 831.349 365.621C826.22 360.14 818.736 357.4 808.898 357.4C798.358 357.4 790.699 359.894 785.921 364.883C781.143 369.802 778.753 376.618 778.753 385.331C778.753 393.412 781.143 399.807 785.921 404.515C790.699 409.152 799.834 414.106 813.325 419.376C826.887 424.646 836.971 430.725 843.576 437.611C850.181 444.427 853.484 453.456 853.484 464.699C853.484 476.715 849.513 486.412 841.573 493.79C833.633 501.098 822.882 504.752 809.32 504.752C795.688 504.752 784.797 501.133 776.645 493.896C768.494 486.658 764.419 475.977 764.419 461.853ZM874.669 450.365V349.179H886.264V450.365C886.264 465.964 889.18 477.207 895.012 484.093C900.844 490.909 909.031 494.317 919.571 494.317C930.041 494.317 938.157 490.909 943.919 484.093C949.751 477.207 952.667 465.964 952.667 450.365V349.179H964.261V450.365C964.261 468.845 960.396 482.547 952.667 491.471C945.008 500.325 933.976 504.752 919.571 504.752C905.236 504.752 894.169 500.325 886.369 491.471C878.569 482.547 874.669 468.845 874.669 450.365ZM990.612 502.644V349.179H1030.03C1044.37 349.179 1055.01 353.395 1061.97 361.827C1069 370.189 1072.51 380.94 1072.51 394.08C1072.51 407.22 1069 418.041 1061.97 426.544C1055.01 434.976 1044.37 439.192 1030.03 439.192H1002.21V502.644H990.612ZM1002.21 428.757H1030.03C1041.42 428.757 1049.39 425.384 1053.96 418.639C1058.53 411.893 1060.81 403.742 1060.81 394.185C1060.81 384.559 1058.53 376.407 1053.96 369.732C1049.39 363.057 1041.42 359.684 1030.03 359.613H1002.21V428.757ZM1090.95 502.644V349.179H1130.37C1144.71 349.179 1155.36 353.395 1162.31 361.827C1169.34 370.189 1172.85 380.94 1172.85 394.08C1172.85 407.22 1169.34 418.041 1162.31 426.544C1155.36 434.976 1144.71 439.192 1130.37 439.192H1102.55V502.644H1090.95ZM1102.55 428.757H1130.37C1141.76 428.757 1149.73 425.384 1154.3 418.639C1158.87 411.893 1161.15 403.742 1161.15 394.185C1161.15 384.559 1158.87 376.407 1154.3 369.732C1149.73 363.057 1141.76 359.684 1130.37 359.613H1102.55V428.757ZM1189.82 430.022V421.801C1189.82 395.169 1194.71 376.056 1204.47 364.462C1214.24 352.868 1227.03 347.071 1242.84 347.071C1258.72 347.071 1271.54 352.868 1281.31 364.462C1291.08 376.056 1295.96 395.169 1295.96 421.801V430.022C1295.96 456.654 1291.08 475.767 1281.31 487.361C1271.54 498.955 1258.72 504.752 1242.84 504.752C1227.03 504.752 1214.24 498.955 1204.47 487.361C1194.71 475.767 1189.82 456.654 1189.82 430.022ZM1201.63 430.022C1201.63 453.421 1205.35 470.005 1212.8 479.772C1220.25 489.469 1230.26 494.317 1242.84 494.317C1255.42 494.317 1265.43 489.469 1272.88 479.772C1280.33 470.005 1284.05 453.421 1284.05 430.022V421.801C1284.05 398.401 1280.33 381.853 1272.88 372.156C1265.43 362.389 1255.42 357.505 1242.84 357.505C1230.26 357.505 1220.25 362.389 1212.8 372.156C1205.35 381.853 1201.63 398.401 1201.63 421.801V430.022ZM1318.83 502.644V349.179H1357.41C1371.32 349.179 1381.76 353.184 1388.72 361.194C1395.67 369.205 1399.15 379.675 1399.15 392.604C1399.15 405.604 1395.67 416.179 1388.72 424.33C1381.76 432.481 1371.32 436.557 1357.41 436.557H1330.43V502.644H1318.83ZM1330.43 426.333H1357.41C1368.58 426.333 1376.38 423.206 1380.81 416.952C1385.31 410.628 1387.56 402.547 1387.56 392.71C1387.56 382.802 1385.31 374.826 1380.81 368.783C1376.38 362.74 1368.58 359.684 1357.41 359.613H1330.43V426.333ZM1391.67 502.644L1354.88 431.498L1367.32 430.654L1404.84 502.644H1391.67ZM1410.11 359.613V349.179H1509.19V359.613H1465.55V502.644H1453.96V359.613H1410.11Z" fill="#71227F"/>
<path d="M764.419 644.708V637.33H776.013V644.708C776.013 655.74 778.929 663.961 784.761 669.372C790.664 674.712 798.85 677.383 809.32 677.383C819.86 677.383 827.906 674.712 833.457 669.372C839.079 663.961 841.889 656.794 841.889 647.87C841.889 639.438 839.535 632.833 834.827 628.054C830.119 623.206 820.985 618.147 807.423 612.876C794.072 607.677 784.024 602.161 777.278 596.328C770.602 590.426 767.265 581.15 767.265 568.502C767.265 557.259 770.883 548.019 778.121 540.781C785.429 533.544 795.688 529.925 808.898 529.925C821.617 529.925 831.771 533.509 839.36 540.676C846.949 547.773 850.743 557.927 850.743 571.137V576.407H839.149V571.137C839.149 561.511 836.549 553.957 831.349 548.476C826.22 542.995 818.736 540.254 808.898 540.254C798.358 540.254 790.699 542.749 785.921 547.738C781.143 552.657 778.753 559.473 778.753 568.186C778.753 576.267 781.143 582.661 785.921 587.369C790.699 592.007 799.834 596.961 813.325 602.231C826.887 607.501 836.971 613.579 843.576 620.465C850.181 627.281 853.484 636.311 853.484 647.554C853.484 659.57 849.513 669.267 841.573 676.645C833.633 683.953 822.882 687.607 809.32 687.607C795.688 687.607 784.797 683.988 776.645 676.75C768.494 669.513 764.419 658.832 764.419 644.708ZM873.565 685.499V532.033H950.087V542.468H885.159V601.071H939.757V611.506H885.159V675.064H951.141V685.499H873.565ZM966.479 685.499V532.033H1005.06C1018.97 532.033 1029.4 536.038 1036.36 544.049C1043.32 552.059 1046.8 562.529 1046.8 575.459C1046.8 588.458 1043.32 599.034 1036.36 607.185C1029.4 615.336 1018.97 619.411 1005.06 619.411H978.073V685.499H966.479ZM978.073 609.187H1005.06C1016.23 609.187 1024.03 606.06 1028.46 599.807C1032.95 593.482 1035.2 585.402 1035.2 575.564C1035.2 565.656 1032.95 557.681 1028.46 551.638C1024.03 545.595 1016.23 542.538 1005.06 542.468H978.073V609.187ZM1039.31 685.499L1002.53 614.352L1014.96 613.509L1052.49 685.499H1039.31ZM1053.7 532.033H1065.72L1104.19 662.942C1104.75 664.91 1105.35 666.983 1105.98 669.161C1106.61 671.34 1107.07 673.061 1107.35 674.326H1107.88C1108.09 673.061 1108.51 671.234 1109.14 668.845C1109.85 666.386 1110.41 664.418 1110.83 662.942L1149.72 532.033H1161.21L1114.83 686.236H1100.08L1053.7 532.033ZM1172.76 685.499V532.033H1184.35V685.499H1172.76ZM1206.01 612.876V604.655C1206.01 578.375 1210.93 559.367 1220.77 547.633C1230.68 535.828 1243.36 529.925 1258.82 529.925C1274.35 529.925 1286.12 534.176 1294.13 542.679C1302.21 551.181 1306.25 563.162 1306.25 578.621V581.783H1294.34V578.621C1294.34 565.902 1291.39 556.311 1285.48 549.846C1279.58 543.381 1270.69 540.149 1258.82 540.149C1245.68 540.149 1235.56 545.419 1228.46 555.959C1221.37 566.5 1217.82 582.731 1217.82 604.655V612.876C1217.82 634.589 1221.51 650.751 1228.88 661.361C1236.33 671.972 1246.52 677.277 1259.45 677.277C1270.9 677.277 1279.58 674.185 1285.48 668.002C1291.39 661.748 1294.34 652.051 1294.34 638.911V635.749H1306.25V639.965C1306.25 654.581 1302.28 666.175 1294.34 674.748C1286.4 683.25 1274.49 687.501 1258.61 687.501C1241.67 687.501 1228.67 681.528 1219.61 669.583C1210.54 657.567 1206.01 638.665 1206.01 612.876ZM1327.81 685.499V532.033H1404.33V542.468H1339.4V601.071H1394V611.506H1339.4V675.064H1405.38V685.499H1327.81ZM1419.67 644.708V637.33H1431.26V644.708C1431.26 655.74 1434.18 663.961 1440.01 669.372C1445.91 674.712 1454.1 677.383 1464.57 677.383C1475.11 677.383 1483.15 674.712 1488.7 669.372C1494.33 663.961 1497.14 656.794 1497.14 647.87C1497.14 639.438 1494.78 632.833 1490.07 628.054C1485.37 623.206 1476.23 618.147 1462.67 612.876C1449.32 607.677 1439.27 602.161 1432.52 596.328C1425.85 590.426 1422.51 581.15 1422.51 568.502C1422.51 557.259 1426.13 548.019 1433.37 540.781C1440.68 533.544 1450.94 529.925 1464.15 529.925C1476.86 529.925 1487.02 533.509 1494.61 540.676C1502.2 547.773 1505.99 557.927 1505.99 571.137V576.407H1494.4V571.137C1494.4 561.511 1491.8 553.957 1486.6 548.476C1481.47 542.995 1473.98 540.254 1464.15 540.254C1453.61 540.254 1445.95 542.749 1441.17 547.738C1436.39 552.657 1434 559.473 1434 568.186C1434 576.267 1436.39 582.661 1441.17 587.369C1445.95 592.007 1455.08 596.961 1468.57 602.231C1482.13 607.501 1492.22 613.579 1498.82 620.465C1505.43 627.281 1508.73 636.311 1508.73 647.554C1508.73 659.57 1504.76 669.267 1496.82 676.645C1488.88 683.953 1478.13 687.607 1464.57 687.607C1450.94 687.607 1440.04 683.988 1431.89 676.75C1423.74 669.513 1419.67 658.832 1419.67 644.708Z" fill="#71227F"/>
</svg>
